<?xml version="1.0" encoding="UTF-8" standalone="no"?>
<!DOCTYPE svg PUBLIC "-//W3C//DTD SVG 1.1//EN" "http://www.w3.org/Graphics/SVG/1.1/DTD/svg11.dtd">
<svg xmlns="http://www.w3.org/2000/svg" version="1.1" viewBox="0.00 0.00 320.00 179.00">
<path fill="#ffffff" d="
  M 271.25 90.86
  A 123.47 81.73 0.0 0 1 147.78 172.59
  A 123.47 81.73 0.0 0 1 24.31 90.86
  A 123.47 81.73 0.0 0 1 147.78 9.13
  A 123.47 81.73 0.0 0 1 271.25 90.86
  Z
  M 181.38 90.25
  C 172.57 71.47 171.22 50.87 177.78 31.16
  A 0.35 0.34 -78.4 0 0 177.49 30.71
  L 157.51 28.48
  A 0.97 0.96 -68.6 0 0 156.63 28.87
  C 143.63 47.20 146.61 75.27 160.43 92.19
  A 2.40 2.38 66.9 0 0 162.55 93.05
  L 181.00 90.95
  Q 181.67 90.87 181.38 90.25
  Z
  M 141.01 93.05
  C 131.39 72.80 130.12 50.47 137.68 29.21
  A 0.50 0.50 0.0 0 0 137.15 28.54
  L 118.00 30.75
  Q 117.39 30.82 116.98 31.26
  C 100.88 48.45 104.35 75.30 119.65 91.59
  C 120.33 92.32 121.14 92.93 122.27 92.97
  Q 131.50 93.31 140.62 93.65
  A 0.42 0.41 78.6 0 0 141.01 93.05
  Z
  M 193.68 35.48
  C 187.16 50.44 187.14 75.01 200.26 86.94
  Q 200.69 87.33 201.25 87.21
  Q 226.02 82.06 248.57 70.60
  A 0.61 0.61 0.0 0 0 248.80 69.70
  C 236.36 51.88 215.34 40.26 194.67 34.99
  A 0.85 0.85 0.0 0 0 193.68 35.48
  Z
  M 88.65 60.51
  C 88.50 52.39 91.23 45.33 93.89 37.98
  A 0.44 0.44 0.0 0 0 93.34 37.41
  C 75.50 43.00 58.86 53.49 47.55 68.57
  A 0.66 0.65 34.5 0 0 47.73 69.52
  Q 70.39 83.56 96.55 88.86
  A 0.49 0.49 0.0 0 0 97.07 88.14
  C 92.33 79.74 88.83 70.09 88.65 60.51
  Z
  M 156.25 112.32
  C 115.82 114.52 75.86 107.96 41.00 86.83
  Q 40.32 86.43 40.28 87.21
  C 39.08 108.21 54.46 125.57 71.97 134.87
  C 114.58 157.49 166.99 159.46 211.96 140.67
  C 232.53 132.07 256.44 113.75 255.20 88.54
  Q 255.17 87.92 254.61 88.20
  C 223.67 103.71 190.75 110.44 156.25 112.32
  Z"
/>
</svg>
