<?xml version="1.0" encoding="UTF-8" standalone="no"?>
<!DOCTYPE svg PUBLIC "-//W3C//DTD SVG 1.1//EN" "http://www.w3.org/Graphics/SVG/1.1/DTD/svg11.dtd">
<svg xmlns="http://www.w3.org/2000/svg" version="1.1" viewBox="0.00 0.00 320.00 179.00">
<path fill="#0f0f0f" d="
  M 204.36 89.82
  A 49.25 32.44 0.0 0 1 155.11 122.26
  A 49.25 32.44 0.0 0 1 105.86 89.82
  A 49.25 32.44 0.0 0 1 155.11 57.38
  A 49.25 32.44 0.0 0 1 204.36 89.82
  Z
  M 150.99 65.80
  Q 151.29 64.93 150.39 65.08
  C 147.01 65.63 143.04 64.88 141.03 68.30
  C 136.80 75.49 138.42 84.25 143.98 90.23
  A 1.16 1.12 69.5 0 0 144.73 90.59
  L 151.76 91.00
  A 0.55 0.54 -11.2 0 0 152.29 90.22
  Q 146.70 78.28 150.99 65.80
  Z
  M 168.43 89.25
  Q 163.51 78.51 166.83 67.07
  Q 167.14 65.98 166.01 65.85
  L 159.75 65.13
  Q 158.44 64.98 157.88 66.18
  Q 151.88 78.88 159.95 90.11
  A 1.28 1.27 69.3 0 0 161.11 90.64
  L 168.05 89.92
  Q 168.70 89.85 168.43 89.25
  Z
  M 194.75 82.04
  Q 195.73 81.56 195.03 80.72
  Q 186.78 70.83 174.21 67.80
  Q 173.55 67.64 173.29 68.27
  C 170.99 73.97 170.79 83.34 175.79 88.04
  Q 176.17 88.40 176.68 88.29
  Q 186.11 86.32 194.75 82.04
  Z
  M 134.87 88.56
  Q 129.13 79.28 133.49 69.29
  A 0.38 0.38 0.0 0 0 133.03 68.77
  Q 122.22 72.12 115.10 80.85
  A 0.32 0.32 0.0 0 0 115.18 81.32
  Q 124.22 86.82 134.57 88.99
  A 0.29 0.28 80.1 0 0 134.87 88.56
  Z
  M 112.11 88.64
  C 112.42 98.81 119.74 105.46 128.44 109.13
  Q 152.33 119.22 177.04 111.12
  C 186.79 107.93 197.53 100.75 198.13 89.42
  A 0.55 0.55 0.0 0 0 197.34 88.89
  C 180.54 97.11 161.01 99.70 142.51 97.85
  C 131.69 96.77 122.12 93.61 112.64 88.32
  A 0.36 0.35 -75.7 0 0 112.11 88.64
  Z"
/>
</svg>
