<?xml version="1.0" encoding="UTF-8" standalone="no"?>
<!DOCTYPE svg PUBLIC "-//W3C//DTD SVG 1.1//EN" "http://www.w3.org/Graphics/SVG/1.1/DTD/svg11.dtd">
<svg xmlns="http://www.w3.org/2000/svg" version="1.1" viewBox="0.00 0.00 1448.00 1448.00">
<g stroke-width="2.00" fill="none" stroke-linecap="butt">
<path stroke="#ff7213" vector-effect="non-scaling-stroke" d="
  M 351.43 600.75
  L 128.30 430.11"
/>
<path stroke="#80b224" vector-effect="non-scaling-stroke" d="
  M 351.30 846.87
  L 128.25 1017.84"
/>
<path stroke="#1099a2" vector-effect="non-scaling-stroke" d="
  M 1156.61 1222.37
  L 944.70 1058.31"
/>
</g>
<path fill="#fe2b25" d="
  M 351.43 600.75
  L 128.30 430.11
  C 172.83 338.18 239.79 258.11 320.45 196.18
  C 458.23 90.39 633.46 44.44 805.46 65.34
  C 937.44 81.37 1061.27 138.85 1161.15 226.07
  A 0.27 0.27 0.0 0 1 1161.16 226.46
  L 968.71 418.90
  A 0.58 0.57 -47.7 0 1 967.94 418.94
  C 901.33 365.10 819.90 333.69 734.01 331.91
  Q 611.00 329.37 509.05 395.53
  C 435.43 443.29 379.39 516.53 351.43 600.75
  Z"
/>
<path fill="#ffb900" d="
  M 128.30 430.11
  L 351.43 600.75
  C 325.33 680.53 325.34 766.92 351.30 846.87
  L 128.25 1017.84
  C 128.10 1017.51 127.81 1017.16 127.69 1016.93
  C 38.93 833.75 38.00 620.76 124.85 437.09
  Q 126.73 433.12 128.30 430.11
  Z"
/>
<path fill="#1f87fc" d="
  M 1156.61 1222.37
  L 944.70 1058.31
  Q 952.35 1053.26 959.62 1048.09
  C 1023.25 1002.80 1064.51 936.21 1079.63 860.52
  A 0.49 0.48 5.8 0 0 1079.15 859.94
  L 724.59 859.94
  Q 724.00 859.94 724.00 859.34
  L 724.00 603.48
  A 0.26 0.26 0.0 0 1 724.26 603.22
  L 1342.00 603.22
  Q 1342.38 603.22 1342.47 603.59
  Q 1353.80 651.25 1356.89 700.26
  Q 1357.49 709.80 1357.56 720.25
  C 1358.42 862.36 1323.80 1003.29 1243.11 1121.69
  Q 1205.23 1177.28 1156.61 1222.37
  Z"
/>
<path fill="#00ab47" d="
  M 351.30 846.87
  C 387.72 957.17 470.53 1044.93 577.78 1088.22
  C 653.83 1118.92 737.92 1122.87 818.25 1107.26
  C 862.92 1098.58 906.14 1082.52 944.70 1058.31
  L 1156.61 1222.37
  C 997.89 1368.98 774.02 1418.77 565.70 1368.82
  C 375.67 1323.26 213.93 1192.72 128.25 1017.84
  L 351.30 846.87
  Z"
/>
</svg>
