<?xml version="1.0" encoding="UTF-8" standalone="no"?>
<!DOCTYPE svg PUBLIC "-//W3C//DTD SVG 1.1//EN" "http://www.w3.org/Graphics/SVG/1.1/DTD/svg11.dtd">
<svg xmlns="http://www.w3.org/2000/svg" version="1.1" viewBox="0.00 0.00 537.00 465.00">
<path fill="#e9e0d5" d="
  M 391.26 204.27
  A 128.37 84.96 0.0 0 1 262.89 289.23
  A 128.37 84.96 0.0 0 1 134.52 204.27
  A 128.37 84.96 0.0 0 1 262.89 119.31
  A 128.37 84.96 0.0 0 1 391.26 204.27
  Z
  M 298.00 203.71
  C 288.64 184.34 287.23 162.65 294.12 142.31
  Q 294.30 141.78 293.75 141.71
  L 273.28 139.39
  Q 272.45 139.29 271.97 139.98
  C 259.19 158.33 260.98 189.45 276.37 205.88
  A 1.95 1.93 64.8 0 0 278.00 206.48
  L 297.72 204.23
  Q 298.22 204.17 298.00 203.71
  Z
  M 255.96 206.56
  C 245.73 185.71 244.66 161.65 252.51 139.96
  A 0.35 0.35 0.0 0 0 252.14 139.49
  L 232.03 141.74
  Q 231.50 141.80 231.12 142.17
  C 213.18 159.56 218.24 189.96 234.79 205.93
  A 1.76 1.74 67.8 0 0 235.96 206.43
  L 255.54 207.20
  Q 256.29 207.23 255.96 206.56
  Z
  M 318.20 200.40
  Q 344.32 195.05 368.06 183.00
  A 0.31 0.31 0.0 0 0 368.17 182.54
  C 354.65 163.81 333.47 151.66 311.38 146.17
  A 0.47 0.46 19.4 0 0 310.85 146.42
  C 303.47 162.28 303.97 187.63 317.61 200.24
  A 0.68 0.66 -29.1 0 0 318.20 200.40
  Z
  M 201.50 171.44
  C 201.67 163.34 204.18 156.12 206.97 149.01
  A 0.37 0.37 0.0 0 0 206.51 148.52
  C 187.79 154.54 170.52 165.40 158.57 181.20
  A 0.54 0.53 34.4 0 0 158.72 181.97
  Q 182.50 196.79 210.04 202.26
  A 0.35 0.34 -9.4 0 0 210.41 201.75
  C 205.16 192.81 201.28 181.92 201.50 171.44
  Z
  M 226.89 265.57
  Q 257.91 271.95 289.27 267.37
  C 321.83 262.62 374.85 243.35 374.80 202.08
  A 0.65 0.65 0.0 0 0 373.86 201.50
  Q 352.30 212.40 329.24 218.11
  C 295.18 226.55 258.58 229.33 223.75 224.79
  C 197.60 221.39 173.80 213.47 151.88 199.98
  A 0.59 0.59 0.0 0 0 150.98 200.46
  C 149.61 239.76 195.84 259.19 226.89 265.57
  Z"
/>
<path fill="#e9e0d5" d="
  M 26.63 362.02
  L 26.63 379.61
  A 0.35 0.35 0.0 0 1 26.28 379.96
  L 13.62 379.96
  A 0.35 0.35 0.0 0 1 13.27 379.61
  L 13.28 316.66
  A 0.35 0.35 0.0 0 1 13.63 316.31
  L 26.28 316.33
  A 0.35 0.35 0.0 0 1 26.63 316.68
  L 26.63 344.61
  A 0.35 0.35 0.0 0 0 27.25 344.83
  L 50.43 316.44
  A 0.35 0.35 0.0 0 1 50.71 316.31
  L 65.74 316.36
  A 0.35 0.35 0.0 0 1 66.01 316.93
  L 43.07 344.61
  A 0.35 0.35 0.0 0 0 43.05 345.03
  L 66.47 379.44
  A 0.35 0.35 0.0 0 1 66.18 379.98
  L 50.93 379.86
  A 0.35 0.35 0.0 0 1 50.64 379.71
  L 33.61 354.09
  A 0.35 0.35 0.0 0 0 33.05 354.07
  L 26.71 361.79
  A 0.35 0.35 0.0 0 0 26.63 362.02
  Z"
/>
<path fill="#e9e0d5" d="
  M 112.10 365.43
  L 89.45 365.43
  A 0.33 0.33 0.0 0 0 89.14 365.66
  L 84.61 379.73
  A 0.33 0.33 0.0 0 1 84.30 379.96
  L 70.66 379.93
  A 0.33 0.33 0.0 0 1 70.35 379.49
  L 92.08 316.54
  A 0.33 0.33 0.0 0 1 92.39 316.32
  L 109.20 316.30
  A 0.33 0.33 0.0 0 1 109.52 316.52
  L 131.24 379.53
  A 0.33 0.33 0.0 0 1 130.93 379.97
  L 117.27 379.91
  A 0.33 0.33 0.0 0 1 116.96 379.68
  L 112.41 365.66
  A 0.33 0.33 0.0 0 0 112.10 365.43
  Z
  M 92.79 354.51
  A 0.38 0.38 0.0 0 0 93.15 355.00
  L 108.43 355.00
  A 0.38 0.38 0.0 0 0 108.79 354.51
  L 101.15 331.00
  A 0.38 0.38 0.0 0 0 100.43 331.00
  L 92.79 354.51
  Z"
/>
<path fill="#e9e0d5" d="
  M 154.81 365.67
  L 150.25 379.70
  A 0.35 0.35 0.0 0 1 149.92 379.94
  L 136.33 379.92
  A 0.35 0.35 0.0 0 1 136.00 379.46
  L 157.75 316.54
  A 0.35 0.35 0.0 0 1 158.08 316.30
  L 174.84 316.32
  A 0.35 0.35 0.0 0 1 175.17 316.56
  L 196.88 379.49
  A 0.35 0.35 0.0 0 1 196.55 379.96
  L 182.93 379.89
  A 0.35 0.35 0.0 0 1 182.60 379.65
  L 178.06 365.67
  A 0.35 0.35 0.0 0 0 177.73 365.43
  L 155.14 365.43
  A 0.35 0.35 0.0 0 0 154.81 365.67
  Z
  M 158.46 354.48
  A 0.40 0.40 0.0 0 0 158.85 355.01
  L 174.05 355.01
  A 0.40 0.40 0.0 0 0 174.44 354.48
  L 166.83 331.05
  A 0.40 0.40 0.0 0 0 166.07 331.05
  L 158.46 354.48
  Z"
/>
<path fill="#e9e0d5" d="
  M 223.65 369.97
  C 227.59 369.44 230.22 366.67 230.23 362.74
  Q 230.29 339.75 230.25 316.78
  A 0.49 0.48 -89.4 0 1 230.74 316.29
  L 243.00 316.32
  Q 243.51 316.32 243.51 316.83
  Q 243.52 335.88 243.52 354.91
  Q 243.52 364.94 241.97 368.89
  C 238.26 378.34 227.22 382.11 217.54 380.52
  C 207.78 378.92 201.87 373.24 201.20 363.01
  A 0.75 0.75 0.0 0 1 201.95 362.21
  L 213.81 362.15
  Q 214.38 362.15 214.48 362.71
  Q 215.98 370.99 223.65 369.97
  Z"
/>
<path fill="#e9e0d5" d="
  M 291.93 327.33
  L 273.05 327.30
  A 0.32 0.32 0.0 0 1 272.73 326.98
  L 272.72 316.61
  A 0.32 0.32 0.0 0 1 273.04 316.29
  L 324.70 316.31
  A 0.32 0.32 0.0 0 1 325.02 316.63
  L 324.99 326.95
  A 0.32 0.32 0.0 0 1 324.67 327.27
  L 305.82 327.38
  A 0.32 0.32 0.0 0 0 305.50 327.70
  L 305.50 379.65
  A 0.32 0.32 0.0 0 1 305.18 379.97
  L 292.57 379.94
  A 0.32 0.32 0.0 0 1 292.25 379.62
  L 292.25 327.65
  A 0.32 0.32 0.0 0 0 291.93 327.33
  Z"
/>
<path fill="#e9e0d5" d="
  M 347.02 355.74
  C 347.04 361.09 347.96 365.24 353.60 367.56
  C 361.29 370.72 372.88 368.49 373.01 358.25
  Q 373.28 337.40 373.19 316.67
  A 0.34 0.34 0.0 0 1 373.53 316.33
  L 385.99 316.31
  Q 386.51 316.31 386.51 316.83
  Q 386.47 333.87 386.53 350.88
  Q 386.57 362.18 385.03 366.46
  C 378.98 383.26 353.17 384.65 340.60 374.65
  C 334.42 369.73 333.72 362.71 333.72 354.28
  Q 333.71 335.45 333.69 316.63
  Q 333.69 316.32 334.01 316.32
  L 346.47 316.33
  Q 347.04 316.33 347.04 316.91
  Q 346.93 336.36 347.02 355.74
  Z"
/>
<path fill="#e9e0d5" d="
  M 410.69 378.33
  Q 398.08 373.15 397.94 358.74
  Q 397.73 337.86 397.71 316.89
  Q 397.71 316.33 398.27 316.33
  L 410.73 316.33
  A 0.37 0.37 0.0 0 1 411.10 316.71
  Q 410.87 337.83 411.13 359.01
  C 411.25 368.15 423.44 370.45 430.31 367.84
  C 436.15 365.62 437.21 361.44 437.23 355.26
  Q 437.29 335.93 437.22 316.75
  A 0.42 0.42 0.0 0 1 437.64 316.33
  L 449.99 316.32
  Q 450.49 316.32 450.49 316.82
  Q 450.52 337.05 450.50 357.25
  Q 450.49 369.05 442.82 375.16
  C 434.52 381.77 420.63 382.41 410.69 378.33
  Z"
/>
<path fill="#e9e0d5" d="
  M 502.29 369.27
  L 502.33 379.62
  A 0.32 0.32 0.0 0 1 502.01 379.94
  L 461.91 379.91
  A 0.32 0.32 0.0 0 1 461.59 379.59
  L 461.60 316.63
  A 0.32 0.32 0.0 0 1 461.92 316.31
  L 474.64 316.31
  A 0.32 0.32 0.0 0 1 474.96 316.63
  L 474.95 368.66
  A 0.32 0.32 0.0 0 0 475.27 368.98
  L 501.97 368.95
  A 0.32 0.32 0.0 0 1 502.29 369.27
  Z"
/>
<path fill="#e9e0d5" d="
  M 521.96 316.65
  C 523.14 324.92 520.67 332.83 514.44 338.43
  Q 514.00 338.83 513.50 338.52
  L 508.73 335.60
  Q 508.27 335.31 508.57 334.86
  C 512.33 329.13 512.42 324.04 512.22 316.64
  Q 512.21 316.30 512.54 316.30
  L 521.58 316.32
  Q 521.91 316.32 521.96 316.65
  Z"
/>
</svg>
