<?xml version="1.0" encoding="UTF-8" standalone="no"?>
<!DOCTYPE svg PUBLIC "-//W3C//DTD SVG 1.1//EN" "http://www.w3.org/Graphics/SVG/1.1/DTD/svg11.dtd">
<svg xmlns="http://www.w3.org/2000/svg" version="1.1" viewBox="0.00 0.00 320.00 179.00">
<path fill="#49453a" d="
  M 25.85 78.83
  C 32.55 47.57 63.25 27.09 91.81 17.95
  Q 119.93 8.94 149.26 9.31
  C 188.21 9.81 230.18 20.91 256.42 51.76
  C 270.80 68.67 275.09 92.32 266.63 112.98
  C 254.25 143.18 220.16 160.91 190.00 167.76
  C 154.29 175.87 115.29 173.96 81.23 159.99
  C 48.99 146.76 17.57 117.46 25.85 78.83
  Z
  M 181.55 90.71
  C 172.54 72.55 171.03 50.39 177.76 31.23
  A 0.36 0.36 0.0 0 0 177.46 30.75
  L 157.58 28.52
  Q 156.98 28.45 156.62 28.94
  C 143.97 46.26 146.43 76.32 160.53 92.22
  Q 161.32 93.11 162.51 93.00
  Q 172.02 92.11 181.47 90.86
  A 0.10 0.10 0.0 0 0 181.55 90.71
  Z
  M 116.80 31.56
  C 100.76 48.00 104.52 77.73 120.78 92.56
  Q 121.17 92.92 121.71 92.94
  L 140.71 93.67
  Q 141.31 93.69 141.04 93.16
  C 131.41 73.99 129.94 49.26 137.66 29.25
  Q 137.87 28.71 137.29 28.74
  Q 128.37 29.21 119.55 30.72
  C 118.45 30.91 117.77 30.57 116.80 31.56
  Z
  M 193.75 35.54
  C 189.88 43.99 188.94 51.92 189.68 61.31
  C 190.41 70.57 192.97 80.75 200.40 86.97
  Q 200.82 87.32 201.35 87.20
  Q 226.06 82.02 248.55 70.62
  A 0.60 0.60 0.0 0 0 248.78 69.74
  C 236.27 51.80 215.50 40.64 194.83 35.04
  Q 194.07 34.84 193.75 35.54
  Z
  M 93.50 37.34
  C 75.67 43.21 58.77 53.37 47.53 68.69
  Q 47.22 69.12 47.66 69.41
  C 62.36 78.90 79.70 85.38 96.77 88.97
  Q 97.34 89.09 97.09 88.56
  Q 93.80 81.72 92.33 78.18
  Q 85.09 60.78 91.97 43.26
  Q 93.02 40.61 93.91 37.74
  Q 94.10 37.14 93.50 37.34
  Z
  M 126.62 152.16
  C 155.24 155.56 184.95 152.19 211.56 140.86
  C 232.89 131.77 255.68 114.48 255.32 88.61
  A 0.46 0.45 75.9 0 0 254.66 88.21
  C 227.13 102.55 196.94 109.13 166.28 111.75
  C 123.92 115.37 78.00 110.18 41.25 86.96
  Q 40.30 86.35 40.25 87.48
  C 38.54 129.12 94.13 148.29 126.62 152.16
  Z"
/>
</svg>
