<?xml version="1.0" encoding="UTF-8" standalone="no"?>
<!DOCTYPE svg PUBLIC "-//W3C//DTD SVG 1.1//EN" "http://www.w3.org/Graphics/SVG/1.1/DTD/svg11.dtd">
<svg xmlns="http://www.w3.org/2000/svg" version="1.1" viewBox="0.00 0.00 225.00 225.00">
<g stroke-width="2.00" fill="none" stroke-linecap="butt">
<path stroke="#f3801d" vector-effect="non-scaling-stroke" d="
  M 54.49 93.20
  L 19.98 66.88"
/>
<path stroke="#98b22c" vector-effect="non-scaling-stroke" d="
  M 54.50 131.73
  L 19.95 158.12"
/>
<path stroke="#3b97a4" vector-effect="non-scaling-stroke" d="
  M 179.50 190.10
  L 146.73 164.59"
/>
</g>
<path fill="#ea4335" d="
  M 54.49 93.20
  L 19.98 66.88
  C 50.28 6.08 128.70 -9.35 180.03 34.90
  A 0.43 0.43 0.0 0 1 180.05 35.52
  L 150.94 64.66
  Q 150.58 65.02 150.18 64.71
  C 115.89 38.48 69.00 52.91 54.49 93.20
  Z"
/>
<path fill="#fbbc05" d="
  M 19.98 66.88
  L 54.49 93.20
  Q 48.44 112.81 54.50 131.73
  L 19.95 158.12
  C 6.01 129.05 6.02 95.91 19.98 66.88
  Z"
/>
<path fill="#4285f4" d="
  M 179.50 190.10
  L 146.73 164.59
  Q 163.63 153.70 167.73 134.09
  Q 167.85 133.51 167.26 133.51
  L 113.20 133.52
  Q 112.63 133.52 112.63 132.95
  L 112.62 94.16
  A 0.35 0.35 0.0 0 1 112.97 93.81
  L 207.88 93.81
  A 0.87 0.87 0.0 0 1 208.73 94.49
  C 210.31 101.75 211.16 109.03 210.92 116.56
  Q 210.34 134.46 204.86 150.64
  Q 197.01 173.83 179.50 190.10
  Z"
/>
<path fill="#34a853" d="
  M 54.50 131.73
  C 64.97 161.14 91.98 176.86 122.61 172.83
  Q 136.17 171.05 146.73 164.59
  L 179.50 190.10
  Q 154.95 211.88 123.24 215.01
  C 79.68 219.30 39.84 197.18 19.95 158.12
  L 54.50 131.73
  Z"
/>
</svg>
