<?xml version="1.0" encoding="UTF-8" standalone="no"?>
<!DOCTYPE svg PUBLIC "-//W3C//DTD SVG 1.1//EN" "http://www.w3.org/Graphics/SVG/1.1/DTD/svg11.dtd">
<svg xmlns="http://www.w3.org/2000/svg" version="1.1" viewBox="0.00 0.00 170.00 78.00">
<g stroke-width="2.00" fill="none" stroke-linecap="butt">
<path stroke="#a59466" vector-effect="non-scaling-stroke" d="
  M 41.20 14.61
  Q 41.38 14.76 41.40 14.99
  Q 41.41 15.06 41.00 15.50
  Q 40.82 15.70 40.57 15.65
  Q 39.87 15.51 39.88 16.23
  L 39.89 17.77
  Q 39.90 18.39 39.28 18.29
  L 34.12 17.40"
/>
<path stroke="#a59466" vector-effect="non-scaling-stroke" d="
  M 26.39 17.10
  Q 25.23 16.75 23.27 17.01"
/>
<path stroke="#c0b276" vector-effect="non-scaling-stroke" d="
  M 23.27 17.01
  Q 22.93 16.69 22.42 16.75
  C 20.47 17.00 19.65 16.01 19.94 13.94
  A 1.41 1.40 -79.5 0 1 21.65 12.76
  Q 22.18 12.89 22.43 11.76
  Q 22.62 10.90 22.41 10.33"
/>
<path stroke="#c0b276" vector-effect="non-scaling-stroke" d="
  M 24.21 15.48
  L 25.74 14.78
  Q 26.21 14.56 25.78 14.26
  L 24.25 13.20
  Q 23.74 12.85 23.90 13.45
  Q 24.13 14.33 23.89 15.21
  A 0.23 0.23 0.0 0 0 24.21 15.48"
/>
<path stroke="#9b8a5a" vector-effect="non-scaling-stroke" d="
  M 15.61 17.75
  Q 13.17 17.65 11.89 18.66"
/>
<path stroke="#9b8a5a" vector-effect="non-scaling-stroke" d="
  M 9.15 18.48
  Q 9.79 18.09 9.85 17.00
  Q 9.88 16.49 9.52 16.13
  Q 8.57 15.19 7.06 15.24"
/>
<path stroke="#a59466" vector-effect="non-scaling-stroke" d="
  M 50.03 20.90
  L 0.00 20.76"
/>
<path stroke="#e18c4f" vector-effect="non-scaling-stroke" d="
  M 47.95 22.29
  L 47.02 22.21"
/>
<path stroke="#de7a5a" vector-effect="non-scaling-stroke" d="
  M 47.02 22.21
  L 3.18 22.19
  A 0.55 0.55 0.0 0 0 2.63 22.74
  L 2.63 30.77
  Q 2.63 31.29 3.09 31.52
  Q 3.48 31.71 3.93 31.62
  Q 4.41 31.53 4.59 31.98
  L 4.91 32.78"
/>
<path stroke="#a59466" vector-effect="non-scaling-stroke" d="
  M 4.91 32.78
  Q 4.62 34.20 5.04 35.55
  A 1.08 1.07 53.4 0 1 4.91 36.48
  Q 4.44 37.19 4.56 37.75
  Q 5.25 41.05 4.99 44.37
  Q 4.91 45.34 3.94 45.24
  L 3.10 45.15
  Q 2.14 45.05 2.15 44.10
  L 2.18 22.58
  Q 2.18 22.08 1.68 22.06
  L 1.34 22.05
  A 0.35 0.35 0.0 0 0 0.97 22.40
  Q 1.00 36.90 0.90 51.41
  Q 0.87 57.41 2.13 60.92
  Q 5.53 70.42 15.02 75.16
  Q 15.48 75.39 16.00 75.36
  Q 16.67 75.33 17.16 75.77
  Q 17.52 76.10 17.99 76.21
  Q 27.44 78.58 36.09 74.66
  C 36.86 74.31 37.27 73.52 38.26 73.36
  Q 38.73 73.28 39.06 72.94
  C 42.46 69.51 45.32 67.22 47.58 62.05
  Q 48.08 60.91 48.34 59.35
  C 48.75 56.90 49.36 54.84 49.35 52.37
  Q 49.28 37.42 49.31 22.47
  Q 49.31 21.95 48.80 21.88
  Q 48.25 21.80 47.95 22.29"
/>
<path stroke="#b9523e" vector-effect="non-scaling-stroke" d="
  M 4.91 32.78
  Q 5.01 32.88 5.07 33.10
  Q 5.15 33.40 5.47 33.42
  Q 5.93 33.43 6.12 33.22"
/>
<path stroke="#9b8a5a" vector-effect="non-scaling-stroke" d="
  M 6.12 33.22
  Q 6.05 33.70 6.28 34.05
  Q 6.51 34.40 6.27 34.75
  C 5.40 36.04 6.80 36.94 5.71 38.14
  Q 5.41 38.46 5.72 38.78
  Q 5.96 39.02 5.98 39.24
  Q 6.15 40.94 5.89 43.79
  Q 5.87 44.04 5.97 44.19
  Q 6.08 44.37 6.27 44.50"
/>
<path stroke="#a59466" vector-effect="non-scaling-stroke" d="
  M 6.27 44.50
  Q 6.44 44.88 5.99 45.26
  Q 5.66 45.53 6.07 45.64
  Q 8.48 46.27 10.79 45.96"
/>
<path stroke="#8f7752" vector-effect="non-scaling-stroke" d="
  M 10.79 45.96
  L 11.18 45.71
  Q 11.70 45.39 11.79 45.99
  Q 12.20 48.57 15.08 48.60"
/>
<path stroke="#a59466" vector-effect="non-scaling-stroke" d="
  M 15.08 48.60
  Q 16.31 49.92 18.19 50.35"
/>
<path stroke="#8f7752" vector-effect="non-scaling-stroke" d="
  M 18.19 50.35
  L 19.18 50.46
  Q 19.64 50.51 19.53 50.95
  Q 19.46 51.22 19.31 51.42
  Q 19.02 51.82 18.52 51.87
  L 17.32 52.00
  A 0.56 0.56 0.0 0 0 17.10 53.05
  Q 18.22 53.67 19.48 53.63
  A 0.65 0.65 0.0 0 0 20.11 53.00
  L 20.12 52.65
  Q 20.13 52.29 20.50 52.32
  Q 20.67 52.34 20.74 52.51
  A 0.82 0.69 -59.0 0 0 22.15 52.03
  Q 22.23 49.67 24.34 49.47"
/>
<path stroke="#bc6433" vector-effect="non-scaling-stroke" d="
  M 24.34 49.47
  Q 22.94 55.92 26.68 56.45"
/>
<path stroke="#4f7b7f" vector-effect="non-scaling-stroke" d="
  M 26.68 56.45
  Q 26.17 56.68 25.30 56.62
  Q 24.84 56.60 24.91 57.05
  L 25.37 60.00"
/>
<path stroke="#98a699" vector-effect="non-scaling-stroke" d="
  M 25.37 60.00
  L 28.07 65.12"
/>
<path stroke="#649f9f" vector-effect="non-scaling-stroke" d="
  M 28.07 65.12
  L 19.54 68.51
  A 0.73 0.73 0.0 0 0 19.15 69.50
  Q 20.40 72.16 20.66 75.13
  A 0.69 0.69 0.0 0 0 21.26 75.75
  Q 29.27 76.88 36.17 72.88
  Q 37.34 72.21 36.03 71.91
  C 34.56 71.58 33.23 72.12 31.68 71.64
  Q 30.56 71.30 29.37 70.93
  Q 28.75 70.74 29.10 70.20
  L 30.93 67.36"
/>
<path stroke="#98a699" vector-effect="non-scaling-stroke" d="
  M 30.93 67.36
  Q 35.17 63.83 33.76 60.19"
/>
<path stroke="#4f7b7f" vector-effect="non-scaling-stroke" d="
  M 33.76 60.19
  Q 34.99 59.99 34.88 58.75
  Q 34.75 57.32 32.96 56.95"
/>
<path stroke="#bc6433" vector-effect="non-scaling-stroke" d="
  M 32.96 56.95
  Q 33.97 56.14 33.40 55.01
  Q 30.27 48.73 35.20 44.85
  Q 35.69 44.47 35.86 45.06
  L 36.20 46.28"
/>
<path stroke="#a59466" vector-effect="non-scaling-stroke" d="
  M 36.20 46.28
  Q 35.23 46.70 34.94 47.25
  A 0.53 0.53 0.0 0 0 35.48 48.02
  L 38.05 47.67
  Q 38.62 47.59 39.17 47.81
  Q 39.99 48.14 40.85 47.97
  Q 41.35 47.87 41.51 47.40
  Q 41.90 46.29 43.02 45.69"
/>
<path stroke="#bc6433" vector-effect="non-scaling-stroke" d="
  M 43.02 45.69
  Q 45.21 47.17 47.03 47.44
  Q 48.06 47.58 48.05 46.54
  L 47.95 22.29"
/>
<path stroke="#b49f6e" vector-effect="non-scaling-stroke" d="
  M 14.52 32.71
  Q 14.95 34.09 14.29 35.65
  A 0.53 0.52 11.2 0 0 14.78 36.37
  L 15.27 36.37
  Q 15.72 36.37 15.50 36.77
  Q 15.42 36.91 15.27 36.88
  Q 14.57 36.75 14.73 37.25
  L 15.06 38.23
  Q 15.18 38.59 14.81 38.64
  Q 14.64 38.66 14.48 38.67
  Q 13.91 38.70 13.96 39.27
  L 14.09 40.94
  Q 14.12 41.37 13.99 41.78
  Q 13.65 42.76 14.44 43.27
  Q 15.12 43.71 14.49 44.22
  L 13.70 44.87
  Q 13.24 45.24 12.69 45.03
  Q 11.07 44.41 10.79 45.96"
/>
<path stroke="#c0b276" vector-effect="non-scaling-stroke" d="
  M 6.27 44.50
  L 7.04 44.49
  Q 7.50 44.49 7.49 44.03
  L 7.38 39.12
  A 0.06 0.06 0.0 0 1 7.50 39.12
  L 7.69 43.82
  Q 7.71 44.45 8.33 44.39
  L 10.11 44.24
  Q 11.79 44.09 10.68 42.81
  Q 10.10 42.15 9.01 41.87
  Q 8.42 41.73 8.97 41.47
  C 10.81 40.60 9.66 36.63 9.43 34.94"
/>
<path stroke="#67b4ce" vector-effect="non-scaling-stroke" d="
  M 33.76 60.19
  L 25.37 60.00"
/>
<path stroke="#7cd8ee" vector-effect="non-scaling-stroke" d="
  M 30.93 67.36
  Q 28.78 66.42 28.07 65.12"
/>
<path stroke="#d4704e" vector-effect="non-scaling-stroke" d="
  M 39.28 35.26
  Q 39.08 35.37 38.88 35.48"
/>
<path stroke="#b9523e" vector-effect="non-scaling-stroke" d="
  M 35.39 32.34
  Q 36.39 32.46 37.23 31.95
  Q 37.57 31.75 37.26 31.49
  C 35.89 30.31 36.30 28.66 34.26 28.20
  Q 34.02 28.14 33.63 27.88
  Q 33.48 27.78 33.40 27.64
  Q 33.12 27.16 32.57 27.14
  Q 31.41 27.10 31.31 28.11
  Q 31.28 28.52 30.90 28.67
  L 29.68 29.16
  A 0.52 0.51 -33.1 0 0 29.50 30.00
  L 30.20 30.71
  A 0.47 0.47 0.0 0 1 30.20 31.36
  Q 29.51 32.07 29.17 32.96
  Q 28.91 33.66 29.63 33.45
  Q 30.54 33.19 31.33 32.73
  Q 32.14 32.26 32.54 32.39
  Q 33.20 32.61 33.22 33.83"
/>
<path stroke="#c85d46" vector-effect="non-scaling-stroke" d="
  M 16.44 34.91
  L 16.66 33.17
  Q 16.72 32.68 16.30 32.42
  Q 15.13 31.70 14.52 32.71"
/>
<path stroke="#de7a5a" vector-effect="non-scaling-stroke" d="
  M 14.52 32.71
  Q 13.79 32.38 13.04 32.33
  Q 12.50 32.30 12.27 32.78
  Q 11.92 33.51 12.27 34.27
  Q 12.47 34.70 12.09 35.00
  L 11.76 35.25
  Q 11.25 35.64 11.11 35.01
  Q 10.66 32.91 11.18 30.80
  A 0.62 0.61 11.1 0 0 10.67 30.05
  L 10.22 29.99
  Q 9.52 29.88 9.51 30.58
  L 9.43 34.94"
/>
<path stroke="#d4704e" vector-effect="non-scaling-stroke" d="
  M 9.43 34.94
  Q 9.00 35.07 9.13 36.06
  A 0.28 0.27 85.5 0 1 8.86 36.38
  L 7.72 36.38
  Q 7.55 36.38 7.51 36.21
  Q 7.23 34.76 7.87 33.52
  A 1.03 0.89 -2.3 0 0 6.45 32.39
  Q 6.22 32.50 6.12 33.22"
/>
<path stroke="#e18c4f" vector-effect="non-scaling-stroke" d="
  M 43.02 45.69
  Q 40.96 45.36 38.51 45.31
  Q 37.12 45.28 36.20 46.28"
/>
<path stroke="#8b7268" vector-effect="non-scaling-stroke" d="
  M 32.96 56.95
  L 26.68 56.45"
/>
<path stroke="#cb6f3b" vector-effect="non-scaling-stroke" d="
  M 24.34 49.47
  Q 25.00 47.42 24.62 46.38
  Q 23.74 43.93 20.25 45.35"
/>
<path stroke="#e18c4f" vector-effect="non-scaling-stroke" d="
  M 20.25 45.35
  Q 19.76 44.63 18.91 45.02"
/>
<path stroke="#cb6f3b" vector-effect="non-scaling-stroke" d="
  M 18.91 45.02
  C 16.07 45.90 15.68 42.90 16.45 40.94
  Q 16.62 40.50 16.32 40.13
  Q 15.82 39.51 16.43 39.03
  Q 16.87 38.69 16.68 38.18
  Q 16.10 36.65 16.44 34.91"
/>
<path stroke="#f54a27" vector-effect="non-scaling-stroke" d="
  M 16.44 34.91
  Q 16.34 36.64 17.25 36.93
  Q 17.64 37.05 17.90 36.74
  L 19.25 35.20
  A 0.53 0.53 0.0 0 1 19.61 35.01
  Q 20.91 34.85 21.45 35.80
  A 0.70 0.70 0.0 0 0 22.34 36.10
  Q 23.83 35.45 24.97 36.32
  Q 25.33 36.59 25.78 36.51
  Q 27.72 36.13 29.74 36.39
  Q 29.85 36.41 29.81 36.51
  Q 29.76 36.65 29.71 36.79
  Q 29.63 37.00 29.82 36.89
  Q 30.95 36.24 32.24 35.98
  Q 32.72 35.89 32.98 36.30
  L 33.57 37.24
  Q 33.96 37.86 33.92 37.13
  Q 33.84 35.41 33.22 33.83"
/>
<path stroke="#bc6433" vector-effect="non-scaling-stroke" d="
  M 33.22 33.83
  Q 34.48 34.81 34.12 32.75
  Q 34.03 32.25 34.52 32.10
  Q 34.94 31.97 35.39 32.34"
/>
<path stroke="#f54a27" vector-effect="non-scaling-stroke" d="
  M 35.39 32.34
  Q 33.61 34.84 35.49 37.59
  A 0.95 0.95 0.0 0 0 37.15 37.45
  Q 37.94 35.70 38.88 35.48"
/>
<path stroke="#d78243" vector-effect="non-scaling-stroke" d="
  M 38.88 35.48
  Q 36.55 38.18 37.41 40.97"
/>
<path stroke="#bc6433" vector-effect="non-scaling-stroke" d="
  M 37.41 40.97
  Q 38.48 41.83 39.41 43.10
  Q 39.78 43.61 40.22 43.24"
/>
<path stroke="#d78243" vector-effect="non-scaling-stroke" d="
  M 40.22 43.24
  Q 40.69 43.66 41.01 43.45
  Q 41.85 42.87 41.78 41.77
  Q 41.75 41.30 41.27 41.36
  Q 40.35 41.49 39.98 40.63
  C 39.38 39.24 40.11 37.22 39.28 35.26"
/>
<path stroke="#f54a27" vector-effect="non-scaling-stroke" d="
  M 39.28 35.26
  C 41.03 34.98 44.12 35.09 45.41 36.52
  A 0.96 0.96 0.0 0 0 47.08 35.88
  L 47.02 22.21"
/>
<path stroke="#b49f6e" vector-effect="non-scaling-stroke" d="
  M 18.91 45.02
  Q 19.05 46.12 20.10 46.76
  Q 20.57 47.05 20.72 46.51
  Q 20.88 45.91 20.25 45.35"
/>
<path stroke="#b49f6e" vector-effect="non-scaling-stroke" d="
  M 18.19 50.35
  Q 18.79 50.29 19.01 50.01
  Q 19.44 49.44 18.73 49.44
  Q 17.00 49.46 16.86 47.84
  Q 16.81 47.26 16.29 46.99
  L 15.93 46.81
  Q 15.34 46.51 15.16 47.15
  Q 14.96 47.82 15.08 48.60"
/>
<path stroke="#9b8a5a" vector-effect="non-scaling-stroke" d="
  M 40.22 43.24
  Q 39.47 40.58 37.41 40.97"
/>
<path stroke="#9b8a5a" vector-effect="non-scaling-stroke" d="
  M 12.5176 52.1400
  A 1.38 0.42 90.1 0 0 12.9400 50.7607
  A 1.38 0.42 90.1 0 0 12.5224 49.3800
  A 1.38 0.42 90.1 0 0 12.1000 50.7593
  A 1.38 0.42 90.1 0 0 12.5176 52.1400"
/>
<path stroke="#9b8a5a" vector-effect="non-scaling-stroke" d="
  M 4.02 50.70
  L 3.88 51.45
  Q 3.77 52.01 4.34 51.96
  Q 4.59 51.93 4.78 51.77
  Q 5.05 51.55 5.02 51.15
  Q 4.99 50.68 4.65 50.44
  Q 4.13 50.09 4.02 50.70"
/>
<path stroke="#a59466" vector-effect="non-scaling-stroke" d="
  M 38.76 51.36
  L 38.94 52.40
  Q 39.04 52.96 39.60 53.08
  Q 41.20 53.43 41.78 51.97
  Q 42.00 51.41 41.49 51.10
  Q 40.50 50.52 39.30 50.64
  A 0.61 0.61 0.0 0 0 38.76 51.36"
/>
<path stroke="#a59466" vector-effect="non-scaling-stroke" d="
  M 36.4221 56.8193
  A 1.27 0.43 88.1 0 0 36.8098 55.5357
  A 1.27 0.43 88.1 0 0 36.3379 54.2807
  A 1.27 0.43 88.1 0 0 35.9502 55.5643
  A 1.27 0.43 88.1 0 0 36.4221 56.8193"
/>
<path stroke="#a59466" vector-effect="non-scaling-stroke" d="
  M 38.80 59.05
  Q 38.29 58.82 37.79 58.90
  Q 37.11 59.00 37.53 59.55
  C 38.70 61.07 41.72 61.22 43.56 61.62
  Q 44.14 61.75 43.86 61.23
  Q 42.52 58.72 39.56 59.15
  Q 39.17 59.21 38.80 59.05"
/>
<path stroke="#8f7752" vector-effect="non-scaling-stroke" d="
  M 12.79 62.45
  L 14.80 65.33
  A 0.30 0.30 0.0 0 0 15.35 65.13
  Q 15.21 63.08 13.74 61.86
  Q 13.52 61.68 13.27 61.69
  Q 13.04 61.71 12.88 61.83
  A 0.46 0.45 -37.0 0 0 12.79 62.45"
/>
<path stroke="#8f7752" vector-effect="non-scaling-stroke" d="
  M 5.10 64.29
  C 7.18 68.43 9.86 70.47 13.70 72.86
  Q 13.75 72.89 13.80 72.87
  Q 13.95 72.84 14.03 72.71
  Q 14.16 72.50 14.00 72.31
  Q 13.38 71.62 11.92 70.81
  Q 7.94 68.62 5.54 64.07
  Q 5.43 63.86 5.21 63.96
  L 5.21 63.97
  Q 4.99 64.08 5.10 64.29"
/>
<path stroke="#d78243" vector-effect="non-scaling-stroke" d="
  M 18.89 36.91
  Q 17.12 39.20 19.19 40.23"
/>
<path stroke="#cb6f3b" vector-effect="non-scaling-stroke" d="
  M 19.19 40.23
  L 19.45 40.75
  A 1.06 1.04 39.9 0 1 19.52 41.45
  Q 19.25 42.55 20.14 42.90
  Q 21.20 43.31 22.28 43.71
  Q 22.93 43.95 22.68 43.30
  L 22.17 42.02
  Q 21.94 41.43 22.38 40.98
  Q 22.57 40.77 22.57 40.46
  A 0.28 0.28 0.0 0 0 22.03 40.37
  Q 21.83 40.96 21.19 40.88
  Q 20.62 40.81 20.62 40.23
  Q 20.61 38.09 20.64 36.00
  Q 20.65 35.11 19.66 35.28
  Q 19.26 35.34 19.16 35.75
  L 18.89 36.91"
/>
<path stroke="#aa9562" vector-effect="non-scaling-stroke" d="
  M 19.19 40.23
  Q 19.90 40.29 20.21 40.02
  A 0.46 0.45 -47.8 0 0 20.18 39.31
  Q 19.75 39.00 19.23 38.92
  A 0.50 0.49 -73.3 0 1 18.86 38.22
  Q 18.99 37.93 19.27 37.77
  A 0.40 0.40 0.0 0 0 19.29 37.10
  Q 19.13 36.99 18.89 36.91"
/>
<path stroke="#b49f6e" vector-effect="non-scaling-stroke" d="
  M 19.54 49.47
  Q 19.45 49.76 19.72 49.90
  Q 20.50 50.31 20.86 49.49
  Q 21.27 48.52 20.76 48.01
  Q 20.16 47.40 19.91 48.22
  L 19.54 49.47"
/>
</g>
<path fill="#cabd83" fill-opacity="0.996" d="
  M 24.89 0.00
  L 25.53 0.00
  Q 25.89 1.49 26.90 2.11
  Q 27.29 2.34 27.27 2.80
  L 27.20 3.95
  A 0.62 0.61 24.7 0 0 27.38 4.43
  L 29.98 7.07
  A 0.71 0.70 -34.6 0 1 29.77 8.20
  Q 28.43 8.83 27.59 10.05
  A 0.61 0.61 0.0 0 0 28.00 11.00
  Q 31.07 11.47 33.13 9.11
  A 0.36 0.35 41.1 0 0 33.09 8.60
  Q 32.94 8.47 32.87 8.30
  Q 32.51 7.37 33.22 7.87
  Q 33.55 8.10 33.91 8.90
  A 0.72 0.70 37.8 0 1 33.96 9.25
  Q 33.68 12.30 36.67 12.55
  A 0.58 0.58 0.0 0 0 37.28 11.81
  Q 36.90 10.55 36.04 9.55
  Q 35.65 9.11 35.99 8.62
  C 36.88 7.32 38.47 7.12 38.87 5.63
  Q 39.00 5.12 39.38 4.77
  L 40.26 3.96
  A 0.87 0.86 -15.8 0 1 41.70 4.76
  Q 41.13 7.65 41.60 9.80
  C 41.86 10.99 41.68 11.80 40.71 12.47
  A 1.07 1.05 -15.2 0 0 40.27 13.22
  Q 40.17 14.20 41.20 14.61
  Q 41.38 14.76 41.40 14.99
  Q 41.41 15.06 41.00 15.50
  Q 40.82 15.70 40.57 15.65
  Q 39.87 15.51 39.88 16.23
  L 39.89 17.77
  Q 39.90 18.39 39.28 18.29
  L 34.12 17.40
  L 26.39 17.10
  Q 25.23 16.75 23.27 17.01
  Q 22.93 16.69 22.42 16.75
  C 20.47 17.00 19.65 16.01 19.94 13.94
  A 1.41 1.40 -79.5 0 1 21.65 12.76
  Q 22.18 12.89 22.43 11.76
  Q 22.62 10.90 22.41 10.33
  Q 21.87 8.69 20.46 8.32
  A 0.81 0.81 0.0 0 1 20.10 6.96
  L 22.41 4.70
  Q 22.77 4.35 22.76 3.86
  Q 22.71 1.73 24.89 0.00
  Z
  M 23.96 9.23
  L 23.59 11.70
  A 0.42 0.42 0.0 0 0 23.94 12.18
  L 24.35 12.24
  A 1.37 1.34 -81.4 0 0 25.88 11.09
  L 25.97 10.50
  A 1.37 1.34 -81.4 0 0 24.85 8.94
  L 24.44 8.88
  A 0.42 0.42 0.0 0 0 23.96 9.23
  Z
  M 24.21 15.48
  L 25.74 14.78
  Q 26.21 14.56 25.78 14.26
  L 24.25 13.20
  Q 23.74 12.85 23.90 13.45
  Q 24.13 14.33 23.89 15.21
  A 0.23 0.23 0.0 0 0 24.21 15.48
  Z"
/>
<path fill="#b6a86a" d="
  M 22.41 10.33
  Q 22.62 10.90 22.43 11.76
  Q 22.18 12.89 21.65 12.76
  A 1.41 1.40 -79.5 0 0 19.94 13.94
  C 19.65 16.01 20.47 17.00 22.42 16.75
  Q 22.93 16.69 23.27 17.01
  L 15.61 17.75
  Q 13.17 17.65 11.89 18.66
  Q 10.44 18.26 9.15 18.48
  Q 9.79 18.09 9.85 17.00
  Q 9.88 16.49 9.52 16.13
  Q 8.57 15.19 7.06 15.24
  L 5.78 11.09
  Q 5.57 10.40 6.11 10.87
  Q 7.57 12.15 7.99 14.02
  A 0.75 0.74 80.1 0 0 8.80 14.60
  L 9.20 14.56
  A 0.67 0.66 82.8 0 0 9.78 13.81
  Q 9.61 12.60 8.61 11.89
  Q 8.14 11.55 8.26 10.99
  L 8.81 8.21
  A 1.83 1.70 45.7 0 0 8.79 7.38
  Q 8.37 5.70 8.84 4.01
  Q 8.99 3.44 9.51 3.71
  C 11.55 4.76 10.99 7.28 13.42 7.70
  A 1.08 1.08 0.0 0 1 14.09 9.43
  L 12.27 11.75
  Q 11.93 12.19 12.47 12.29
  C 15.33 12.82 16.23 9.77 16.81 7.68
  Q 16.83 7.62 16.88 7.62
  L 17.18 7.61
  Q 17.44 7.60 17.40 7.86
  Q 17.11 9.69 18.75 10.48
  Q 21.40 11.77 22.41 10.33
  Z"
/>
<path fill="#806c4a" d="
  M 50.03 20.90
  L 0.00 20.76
  L 0.00 19.99
  L 6.48 20.00
  Q 7.05 20.00 7.05 19.43
  L 7.06 15.24
  Q 8.57 15.19 9.52 16.13
  Q 9.88 16.49 9.85 17.00
  Q 9.79 18.09 9.15 18.48
  L 8.74 18.93
  Q 8.63 19.05 8.70 19.18
  Q 8.76 19.30 8.91 19.34
  Q 9.08 19.40 9.25 19.32
  Q 10.29 18.84 11.01 19.67
  Q 11.34 20.05 11.84 20.02
  Q 12.18 20.00 12.42 19.76
  Q 12.89 19.29 12.33 18.94
  L 11.89 18.66
  Q 13.17 17.65 15.61 17.75
  L 17.30 19.48
  Q 17.66 19.85 18.18 19.79
  C 20.37 19.54 21.41 20.39 23.15 18.46
  Q 23.50 18.08 23.39 17.58
  L 23.27 17.01
  Q 25.23 16.75 26.39 17.10
  Q 25.77 18.03 26.77 18.72
  C 28.85 20.17 29.20 19.11 31.21 19.72
  Q 31.65 19.85 32.03 19.60
  Q 33.75 18.49 34.12 17.40
  L 39.28 18.29
  Q 39.90 18.39 39.89 17.77
  L 39.88 16.23
  Q 39.87 15.51 40.57 15.65
  Q 40.82 15.70 41.00 15.50
  Q 41.41 15.06 41.40 14.99
  Q 41.38 14.76 41.20 14.61
  Q 41.37 14.64 41.53 14.61
  Q 41.93 14.52 42.04 14.13
  Q 42.61 12.19 43.98 10.66
  Q 44.28 10.33 44.34 10.78
  Q 44.45 11.58 44.23 12.02
  Q 42.37 15.61 42.95 19.42
  A 0.86 0.85 80.6 0 0 43.95 20.14
  Q 48.02 19.37 50.03 20.90
  Z
  M 39.2973 18.7501
  A 1.09 0.71 -23.8 0 0 38.0135 18.5404
  A 1.09 0.71 -23.8 0 0 37.3027 19.6299
  A 1.09 0.71 -23.8 0 0 38.5865 19.8396
  A 1.09 0.71 -23.8 0 0 39.2973 18.7501
  Z"
/>
<path fill="#371922" fill-opacity="0.996" d="
  M 88.21 24.07
  A 1.98 1.98 0.0 0 0 88.24 20.34
  C 85.89 19.49 80.79 19.05 81.14 15.54
  C 81.56 11.30 87.04 11.73 89.76 13.44
  Q 90.11 13.66 89.89 14.01
  L 89.73 14.25
  A 0.46 0.45 -59.4 0 1 89.14 14.41
  C 87.12 13.37 83.10 12.11 82.57 15.43
  A 2.13 2.12 -79.3 0 0 84.21 17.85
  C 87.07 18.49 91.34 19.03 90.32 23.26
  C 89.40 27.04 83.62 25.91 81.05 24.01
  Q 80.71 23.77 80.98 23.44
  L 81.25 23.11
  A 0.24 0.23 36.3 0 1 81.56 23.07
  Q 84.62 25.29 88.21 24.07
  Z"
/>
<path fill="#371922" fill-opacity="0.996" d="
  M 163.27 18.97
  A 6.83 6.83 0.0 0 1 156.44 25.80
  A 6.83 6.83 0.0 0 1 149.61 18.97
  A 6.83 6.83 0.0 0 1 156.44 12.14
  A 6.83 6.83 0.0 0 1 163.27 18.97
  Z
  M 156.7195 24.6541
  A 5.72 5.43 87.4 0 0 161.8844 18.6937
  A 5.72 5.43 87.4 0 0 156.2005 13.2259
  A 5.72 5.43 87.4 0 0 151.0356 19.1863
  A 5.72 5.43 87.4 0 0 156.7195 24.6541
  Z"
/>
<rect fill="#371922" fill-opacity="0.996" x="60.89" y="12.29" width="1.20" height="13.22" rx="0.52"/>
<path fill="#371922" fill-opacity="0.996" d="
  M 68.19 15.19
  Q 67.51 14.96 67.51 15.67
  L 67.51 25.26
  Q 67.51 25.77 67.00 25.70
  L 66.66 25.64
  Q 66.36 25.60 66.36 25.29
  L 66.38 13.91
  Q 66.38 10.90 68.25 13.26
  L 75.28 22.16
  Q 76.26 23.40 76.25 21.82
  L 76.18 13.01
  Q 76.18 12.39 76.81 12.34
  L 77.07 12.32
  A 0.38 0.38 0.0 0 1 77.49 12.70
  L 77.50 24.25
  Q 77.50 26.91 75.86 24.82
  Q 72.47 20.48 68.65 15.60
  Q 68.38 15.26 68.19 15.19
  Z"
/>
<path fill="#371922" fill-opacity="0.996" d="
  M 98.17 25.52
  L 97.38 25.47
  A 0.25 0.25 0.0 0 1 97.15 25.22
  L 97.14 13.76
  A 0.25 0.25 0.0 0 0 96.90 13.51
  L 92.76 13.37
  A 0.25 0.25 0.0 0 1 92.52 13.12
  L 92.53 12.62
  A 0.25 0.25 0.0 0 1 92.78 12.37
  L 102.72 12.35
  A 0.25 0.25 0.0 0 1 102.97 12.58
  L 103.01 13.09
  A 0.25 0.25 0.0 0 1 102.77 13.36
  L 98.69 13.55
  A 0.25 0.25 0.0 0 0 98.45 13.80
  L 98.44 25.27
  A 0.25 0.25 0.0 0 1 98.17 25.52
  Z"
/>
<path fill="#371922" fill-opacity="0.996" d="
  M 116.49 13.78
  L 116.48 25.40
  A 0.25 0.25 0.0 0 1 116.22 25.65
  L 115.45 25.63
  A 0.25 0.25 0.0 0 1 115.21 25.38
  L 115.19 13.76
  A 0.25 0.25 0.0 0 0 114.95 13.51
  L 110.82 13.33
  A 0.25 0.25 0.0 0 1 110.58 13.05
  L 110.65 12.56
  A 0.25 0.25 0.0 0 1 110.90 12.35
  L 120.89 12.38
  A 0.25 0.25 0.0 0 1 121.14 12.61
  L 121.17 13.10
  A 0.25 0.25 0.0 0 1 120.93 13.37
  L 116.73 13.53
  A 0.25 0.25 0.0 0 0 116.49 13.78
  Z"
/>
<path fill="#371922" fill-opacity="0.996" d="
  M 129.39 24.56
  Q 133.61 24.84 133.61 20.61
  L 133.61 12.74
  Q 133.61 12.33 134.02 12.35
  L 134.36 12.37
  A 0.64 0.64 0.0 0 1 134.96 13.00
  C 135.02 16.36 135.59 21.44 133.62 24.01
  C 131.09 27.30 124.83 26.16 124.03 21.51
  Q 123.69 19.53 123.88 12.72
  A 0.38 0.37 2.9 0 1 124.29 12.36
  L 124.56 12.38
  Q 125.14 12.43 125.14 13.00
  L 125.18 21.11
  A 3.42 3.41 1.8 0 0 128.36 24.49
  L 129.39 24.56
  Z"
/>
<path fill="#371922" fill-opacity="0.996" d="
  M 143.66 13.75
  L 143.61 25.41
  A 0.26 0.26 0.0 0 1 143.36 25.67
  L 142.63 25.69
  A 0.26 0.26 0.0 0 1 142.36 25.43
  L 142.27 13.76
  A 0.26 0.26 0.0 0 0 142.02 13.50
  L 137.87 13.41
  A 0.26 0.26 0.0 0 1 137.61 13.12
  L 137.66 12.58
  A 0.26 0.26 0.0 0 1 137.92 12.34
  L 147.95 12.31
  A 0.26 0.26 0.0 0 1 148.21 12.58
  L 148.20 13.18
  A 0.26 0.26 0.0 0 1 147.94 13.43
  L 143.92 13.49
  A 0.26 0.26 0.0 0 0 143.66 13.75
  Z"
/>
<rect fill="#371922" fill-opacity="0.996" x="106.08" y="12.45" width="1.42" height="13.10" rx="0.50"/>
<path fill="#b6a86a" d="
  M 24.21 15.48
  A 0.23 0.23 0.0 0 1 23.89 15.21
  Q 24.13 14.33 23.90 13.45
  Q 23.74 12.85 24.25 13.20
  L 25.78 14.26
  Q 26.21 14.56 25.74 14.78
  L 24.21 15.48
  Z"
/>
<path fill="#cabd83" fill-opacity="0.996" d="
  M 50.03 20.90
  Q 50.08 35.15 49.98 49.17
  Q 49.92 57.55 48.44 61.63
  C 45.84 68.81 40.37 74.19 32.90 76.45
  Q 30.36 77.22 27.86 78.00
  L 21.29 78.00
  Q 19.10 77.22 16.93 76.45
  C 10.20 74.07 5.19 69.47 2.27 62.94
  C 1.47 61.15 0.97 58.68 0.00 56.59
  L 0.00 20.76
  L 50.03 20.90
  Z
  M 47.95 22.29
  L 47.02 22.21
  L 3.18 22.19
  A 0.55 0.55 0.0 0 0 2.63 22.74
  L 2.63 30.77
  Q 2.63 31.29 3.09 31.52
  Q 3.48 31.71 3.93 31.62
  Q 4.41 31.53 4.59 31.98
  L 4.91 32.78
  Q 4.62 34.20 5.04 35.55
  A 1.08 1.07 53.4 0 1 4.91 36.48
  Q 4.44 37.19 4.56 37.75
  Q 5.25 41.05 4.99 44.37
  Q 4.91 45.34 3.94 45.24
  L 3.10 45.15
  Q 2.14 45.05 2.15 44.10
  L 2.18 22.58
  Q 2.18 22.08 1.68 22.06
  L 1.34 22.05
  A 0.35 0.35 0.0 0 0 0.97 22.40
  Q 1.00 36.90 0.90 51.41
  Q 0.87 57.41 2.13 60.92
  Q 5.53 70.42 15.02 75.16
  Q 15.48 75.39 16.00 75.36
  Q 16.67 75.33 17.16 75.77
  Q 17.52 76.10 17.99 76.21
  Q 27.44 78.58 36.09 74.66
  C 36.86 74.31 37.27 73.52 38.26 73.36
  Q 38.73 73.28 39.06 72.94
  C 42.46 69.51 45.32 67.22 47.58 62.05
  Q 48.08 60.91 48.34 59.35
  C 48.75 56.90 49.36 54.84 49.35 52.37
  Q 49.28 37.42 49.31 22.47
  Q 49.31 21.95 48.80 21.88
  Q 48.25 21.80 47.95 22.29
  Z"
/>
<path fill="#806c4a" d="
  M 4.91 32.78
  Q 5.01 32.88 5.07 33.10
  Q 5.15 33.40 5.47 33.42
  Q 5.93 33.43 6.12 33.22
  Q 6.05 33.70 6.28 34.05
  Q 6.51 34.40 6.27 34.75
  C 5.40 36.04 6.80 36.94 5.71 38.14
  Q 5.41 38.46 5.72 38.78
  Q 5.96 39.02 5.98 39.24
  Q 6.15 40.94 5.89 43.79
  Q 5.87 44.04 5.97 44.19
  Q 6.08 44.37 6.27 44.50
  Q 6.44 44.88 5.99 45.26
  Q 5.66 45.53 6.07 45.64
  Q 8.48 46.27 10.79 45.96
  L 11.18 45.71
  Q 11.70 45.39 11.79 45.99
  Q 12.20 48.57 15.08 48.60
  Q 16.31 49.92 18.19 50.35
  L 19.18 50.46
  Q 19.64 50.51 19.53 50.95
  Q 19.46 51.22 19.31 51.42
  Q 19.02 51.82 18.52 51.87
  L 17.32 52.00
  A 0.56 0.56 0.0 0 0 17.10 53.05
  Q 18.22 53.67 19.48 53.63
  A 0.65 0.65 0.0 0 0 20.11 53.00
  L 20.12 52.65
  Q 20.13 52.29 20.50 52.32
  Q 20.67 52.34 20.74 52.51
  A 0.82 0.69 -59.0 0 0 22.15 52.03
  Q 22.23 49.67 24.34 49.47
  Q 22.94 55.92 26.68 56.45
  Q 26.17 56.68 25.30 56.62
  Q 24.84 56.60 24.91 57.05
  L 25.37 60.00
  L 28.07 65.12
  L 19.54 68.51
  A 0.73 0.73 0.0 0 0 19.15 69.50
  Q 20.40 72.16 20.66 75.13
  A 0.69 0.69 0.0 0 0 21.26 75.75
  Q 29.27 76.88 36.17 72.88
  Q 37.34 72.21 36.03 71.91
  C 34.56 71.58 33.23 72.12 31.68 71.64
  Q 30.56 71.30 29.37 70.93
  Q 28.75 70.74 29.10 70.20
  L 30.93 67.36
  Q 35.17 63.83 33.76 60.19
  Q 34.99 59.99 34.88 58.75
  Q 34.75 57.32 32.96 56.95
  Q 33.97 56.14 33.40 55.01
  Q 30.27 48.73 35.20 44.85
  Q 35.69 44.47 35.86 45.06
  L 36.20 46.28
  Q 35.23 46.70 34.94 47.25
  A 0.53 0.53 0.0 0 0 35.48 48.02
  L 38.05 47.67
  Q 38.62 47.59 39.17 47.81
  Q 39.99 48.14 40.85 47.97
  Q 41.35 47.87 41.51 47.40
  Q 41.90 46.29 43.02 45.69
  Q 45.21 47.17 47.03 47.44
  Q 48.06 47.58 48.05 46.54
  L 47.95 22.29
  Q 48.25 21.80 48.80 21.88
  Q 49.31 21.95 49.31 22.47
  Q 49.28 37.42 49.35 52.37
  C 49.36 54.84 48.75 56.90 48.34 59.35
  Q 48.08 60.91 47.58 62.05
  C 45.32 67.22 42.46 69.51 39.06 72.94
  Q 38.73 73.28 38.26 73.36
  C 37.27 73.52 36.86 74.31 36.09 74.66
  Q 27.44 78.58 17.99 76.21
  Q 17.52 76.10 17.16 75.77
  Q 16.67 75.33 16.00 75.36
  Q 15.48 75.39 15.02 75.16
  Q 5.53 70.42 2.13 60.92
  Q 0.87 57.41 0.90 51.41
  Q 1.00 36.90 0.97 22.40
  A 0.35 0.35 0.0 0 1 1.34 22.05
  L 1.68 22.06
  Q 2.18 22.08 2.18 22.58
  L 2.15 44.10
  Q 2.14 45.05 3.10 45.15
  L 3.94 45.24
  Q 4.91 45.34 4.99 44.37
  Q 5.25 41.05 4.56 37.75
  Q 4.44 37.19 4.91 36.48
  A 1.08 1.07 53.4 0 0 5.04 35.55
  Q 4.62 34.20 4.91 32.78
  Z
  M 12.5176 52.1400
  A 1.38 0.42 90.1 0 0 12.9400 50.7607
  A 1.38 0.42 90.1 0 0 12.5224 49.3800
  A 1.38 0.42 90.1 0 0 12.1000 50.7593
  A 1.38 0.42 90.1 0 0 12.5176 52.1400
  Z
  M 4.02 50.70
  L 3.88 51.45
  Q 3.77 52.01 4.34 51.96
  Q 4.59 51.93 4.78 51.77
  Q 5.05 51.55 5.02 51.15
  Q 4.99 50.68 4.65 50.44
  Q 4.13 50.09 4.02 50.70
  Z
  M 38.76 51.36
  L 38.94 52.40
  Q 39.04 52.96 39.60 53.08
  Q 41.20 53.43 41.78 51.97
  Q 42.00 51.41 41.49 51.10
  Q 40.50 50.52 39.30 50.64
  A 0.61 0.61 0.0 0 0 38.76 51.36
  Z
  M 36.4221 56.8193
  A 1.27 0.43 88.1 0 0 36.8098 55.5357
  A 1.27 0.43 88.1 0 0 36.3379 54.2807
  A 1.27 0.43 88.1 0 0 35.9502 55.5643
  A 1.27 0.43 88.1 0 0 36.4221 56.8193
  Z
  M 38.80 59.05
  Q 38.29 58.82 37.79 58.90
  Q 37.11 59.00 37.53 59.55
  C 38.70 61.07 41.72 61.22 43.56 61.62
  Q 44.14 61.75 43.86 61.23
  Q 42.52 58.72 39.56 59.15
  Q 39.17 59.21 38.80 59.05
  Z
  M 12.79 62.45
  L 14.80 65.33
  A 0.30 0.30 0.0 0 0 15.35 65.13
  Q 15.21 63.08 13.74 61.86
  Q 13.52 61.68 13.27 61.69
  Q 13.04 61.71 12.88 61.83
  A 0.46 0.45 -37.0 0 0 12.79 62.45
  Z
  M 5.10 64.29
  C 7.18 68.43 9.86 70.47 13.70 72.86
  Q 13.75 72.89 13.80 72.87
  Q 13.95 72.84 14.03 72.71
  Q 14.16 72.50 14.00 72.31
  Q 13.38 71.62 11.92 70.81
  Q 7.94 68.62 5.54 64.07
  Q 5.43 63.86 5.21 63.96
  L 5.21 63.97
  Q 4.99 64.08 5.10 64.29
  Z"
/>
<path fill="#f75b1c" d="
  M 47.95 22.29
  L 48.05 46.54
  Q 48.06 47.58 47.03 47.44
  Q 45.21 47.17 43.02 45.69
  Q 40.96 45.36 38.51 45.31
  Q 37.12 45.28 36.20 46.28
  L 35.86 45.06
  Q 35.69 44.47 35.20 44.85
  Q 30.27 48.73 33.40 55.01
  Q 33.97 56.14 32.96 56.95
  L 26.68 56.45
  Q 22.94 55.92 24.34 49.47
  Q 25.00 47.42 24.62 46.38
  Q 23.74 43.93 20.25 45.35
  Q 19.76 44.63 18.91 45.02
  C 16.07 45.90 15.68 42.90 16.45 40.94
  Q 16.62 40.50 16.32 40.13
  Q 15.82 39.51 16.43 39.03
  Q 16.87 38.69 16.68 38.18
  Q 16.10 36.65 16.44 34.91
  Q 16.34 36.64 17.25 36.93
  Q 17.64 37.05 17.90 36.74
  L 19.25 35.20
  A 0.53 0.53 0.0 0 1 19.61 35.01
  Q 20.91 34.85 21.45 35.80
  A 0.70 0.70 0.0 0 0 22.34 36.10
  Q 23.83 35.45 24.97 36.32
  Q 25.33 36.59 25.78 36.51
  Q 27.72 36.13 29.74 36.39
  Q 29.85 36.41 29.81 36.51
  Q 29.76 36.65 29.71 36.79
  Q 29.63 37.00 29.82 36.89
  Q 30.95 36.24 32.24 35.98
  Q 32.72 35.89 32.98 36.30
  L 33.57 37.24
  Q 33.96 37.86 33.92 37.13
  Q 33.84 35.41 33.22 33.83
  Q 34.48 34.81 34.12 32.75
  Q 34.03 32.25 34.52 32.10
  Q 34.94 31.97 35.39 32.34
  Q 33.61 34.84 35.49 37.59
  A 0.95 0.95 0.0 0 0 37.15 37.45
  Q 37.94 35.70 38.88 35.48
  Q 36.55 38.18 37.41 40.97
  Q 38.48 41.83 39.41 43.10
  Q 39.78 43.61 40.22 43.24
  Q 40.69 43.66 41.01 43.45
  Q 41.85 42.87 41.78 41.77
  Q 41.75 41.30 41.27 41.36
  Q 40.35 41.49 39.98 40.63
  C 39.38 39.24 40.11 37.22 39.28 35.26
  C 41.03 34.98 44.12 35.09 45.41 36.52
  A 0.96 0.96 0.0 0 0 47.08 35.88
  L 47.02 22.21
  L 47.95 22.29
  Z
  M 18.89 36.91
  Q 17.12 39.20 19.19 40.23
  L 19.45 40.75
  A 1.06 1.04 39.9 0 1 19.52 41.45
  Q 19.25 42.55 20.14 42.90
  Q 21.20 43.31 22.28 43.71
  Q 22.93 43.95 22.68 43.30
  L 22.17 42.02
  Q 21.94 41.43 22.38 40.98
  Q 22.57 40.77 22.57 40.46
  A 0.28 0.28 0.0 0 0 22.03 40.37
  Q 21.83 40.96 21.19 40.88
  Q 20.62 40.81 20.62 40.23
  Q 20.61 38.09 20.64 36.00
  Q 20.65 35.11 19.66 35.28
  Q 19.26 35.34 19.16 35.75
  L 18.89 36.91
  Z"
/>
<path fill="#f23832" d="
  M 47.02 22.21
  L 47.08 35.88
  A 0.96 0.96 0.0 0 1 45.41 36.52
  C 44.12 35.09 41.03 34.98 39.28 35.26
  Q 39.08 35.37 38.88 35.48
  Q 37.94 35.70 37.15 37.45
  A 0.95 0.95 0.0 0 1 35.49 37.59
  Q 33.61 34.84 35.39 32.34
  Q 36.39 32.46 37.23 31.95
  Q 37.57 31.75 37.26 31.49
  C 35.89 30.31 36.30 28.66 34.26 28.20
  Q 34.02 28.14 33.63 27.88
  Q 33.48 27.78 33.40 27.64
  Q 33.12 27.16 32.57 27.14
  Q 31.41 27.10 31.31 28.11
  Q 31.28 28.52 30.90 28.67
  L 29.68 29.16
  A 0.52 0.51 -33.1 0 0 29.50 30.00
  L 30.20 30.71
  A 0.47 0.47 0.0 0 1 30.20 31.36
  Q 29.51 32.07 29.17 32.96
  Q 28.91 33.66 29.63 33.45
  Q 30.54 33.19 31.33 32.73
  Q 32.14 32.26 32.54 32.39
  Q 33.20 32.61 33.22 33.83
  Q 33.84 35.41 33.92 37.13
  Q 33.96 37.86 33.57 37.24
  L 32.98 36.30
  Q 32.72 35.89 32.24 35.98
  Q 30.95 36.24 29.82 36.89
  Q 29.63 37.00 29.71 36.79
  Q 29.76 36.65 29.81 36.51
  Q 29.85 36.41 29.74 36.39
  Q 27.72 36.13 25.78 36.51
  Q 25.33 36.59 24.97 36.32
  Q 23.83 35.45 22.34 36.10
  A 0.70 0.70 0.0 0 1 21.45 35.80
  Q 20.91 34.85 19.61 35.01
  A 0.53 0.53 0.0 0 0 19.25 35.20
  L 17.90 36.74
  Q 17.64 37.05 17.25 36.93
  Q 16.34 36.64 16.44 34.91
  L 16.66 33.17
  Q 16.72 32.68 16.30 32.42
  Q 15.13 31.70 14.52 32.71
  Q 13.79 32.38 13.04 32.33
  Q 12.50 32.30 12.27 32.78
  Q 11.92 33.51 12.27 34.27
  Q 12.47 34.70 12.09 35.00
  L 11.76 35.25
  Q 11.25 35.64 11.11 35.01
  Q 10.66 32.91 11.18 30.80
  A 0.62 0.61 11.1 0 0 10.67 30.05
  L 10.22 29.99
  Q 9.52 29.88 9.51 30.58
  L 9.43 34.94
  Q 9.00 35.07 9.13 36.06
  A 0.28 0.27 85.5 0 1 8.86 36.38
  L 7.72 36.38
  Q 7.55 36.38 7.51 36.21
  Q 7.23 34.76 7.87 33.52
  A 1.03 0.89 -2.3 0 0 6.45 32.39
  Q 6.22 32.50 6.12 33.22
  Q 5.93 33.43 5.47 33.42
  Q 5.15 33.40 5.07 33.10
  Q 5.01 32.88 4.91 32.78
  L 4.59 31.98
  Q 4.41 31.53 3.93 31.62
  Q 3.48 31.71 3.09 31.52
  Q 2.63 31.29 2.63 30.77
  L 2.63 22.74
  A 0.55 0.55 0.0 0 1 3.18 22.19
  L 47.02 22.21
  Z"
/>
<path fill="#806c4a" d="
  M 35.39 32.34
  Q 34.94 31.97 34.52 32.10
  Q 34.03 32.25 34.12 32.75
  Q 34.48 34.81 33.22 33.83
  Q 33.20 32.61 32.54 32.39
  Q 32.14 32.26 31.33 32.73
  Q 30.54 33.19 29.63 33.45
  Q 28.91 33.66 29.17 32.96
  Q 29.51 32.07 30.20 31.36
  A 0.47 0.47 0.0 0 0 30.20 30.71
  L 29.50 30.00
  A 0.52 0.51 -33.1 0 1 29.68 29.16
  L 30.90 28.67
  Q 31.28 28.52 31.31 28.11
  Q 31.41 27.10 32.57 27.14
  Q 33.12 27.16 33.40 27.64
  Q 33.48 27.78 33.63 27.88
  Q 34.02 28.14 34.26 28.20
  C 36.30 28.66 35.89 30.31 37.26 31.49
  Q 37.57 31.75 37.23 31.95
  Q 36.39 32.46 35.39 32.34
  Z"
/>
<path fill="#cabd83" fill-opacity="0.996" d="
  M 14.52 32.71
  Q 14.95 34.09 14.29 35.65
  A 0.53 0.52 11.2 0 0 14.78 36.37
  L 15.27 36.37
  Q 15.72 36.37 15.50 36.77
  Q 15.42 36.91 15.27 36.88
  Q 14.57 36.75 14.73 37.25
  L 15.06 38.23
  Q 15.18 38.59 14.81 38.64
  Q 14.64 38.66 14.48 38.67
  Q 13.91 38.70 13.96 39.27
  L 14.09 40.94
  Q 14.12 41.37 13.99 41.78
  Q 13.65 42.76 14.44 43.27
  Q 15.12 43.71 14.49 44.22
  L 13.70 44.87
  Q 13.24 45.24 12.69 45.03
  Q 11.07 44.41 10.79 45.96
  Q 8.48 46.27 6.07 45.64
  Q 5.66 45.53 5.99 45.26
  Q 6.44 44.88 6.27 44.50
  L 7.04 44.49
  Q 7.50 44.49 7.49 44.03
  L 7.38 39.12
  A 0.06 0.06 0.0 0 1 7.50 39.12
  L 7.69 43.82
  Q 7.71 44.45 8.33 44.39
  L 10.11 44.24
  Q 11.79 44.09 10.68 42.81
  Q 10.10 42.15 9.01 41.87
  Q 8.42 41.73 8.97 41.47
  C 10.81 40.60 9.66 36.63 9.43 34.94
  L 9.51 30.58
  Q 9.52 29.88 10.22 29.99
  L 10.67 30.05
  A 0.62 0.61 11.1 0 1 11.18 30.80
  Q 10.66 32.91 11.11 35.01
  Q 11.25 35.64 11.76 35.25
  L 12.09 35.00
  Q 12.47 34.70 12.27 34.27
  Q 11.92 33.51 12.27 32.78
  Q 12.50 32.30 13.04 32.33
  Q 13.79 32.38 14.52 32.71
  Z"
/>
<path fill="#b6a86a" d="
  M 9.43 34.94
  C 9.66 36.63 10.81 40.60 8.97 41.47
  Q 8.42 41.73 9.01 41.87
  Q 10.10 42.15 10.68 42.81
  Q 11.79 44.09 10.11 44.24
  L 8.33 44.39
  Q 7.71 44.45 7.69 43.82
  L 7.50 39.12
  A 0.06 0.06 0.0 0 0 7.38 39.12
  L 7.49 44.03
  Q 7.50 44.49 7.04 44.49
  L 6.27 44.50
  Q 6.08 44.37 5.97 44.19
  Q 5.87 44.04 5.89 43.79
  Q 6.15 40.94 5.98 39.24
  Q 5.96 39.02 5.72 38.78
  Q 5.41 38.46 5.71 38.14
  C 6.80 36.94 5.40 36.04 6.27 34.75
  Q 6.51 34.40 6.28 34.05
  Q 6.05 33.70 6.12 33.22
  Q 6.22 32.50 6.45 32.39
  A 1.03 0.89 -2.3 0 1 7.87 33.52
  Q 7.23 34.76 7.51 36.21
  Q 7.55 36.38 7.72 36.38
  L 8.86 36.38
  A 0.28 0.27 85.5 0 0 9.13 36.06
  Q 9.00 35.07 9.43 34.94
  Z"
/>
<path fill="#9e825a" d="
  M 16.44 34.91
  Q 16.10 36.65 16.68 38.18
  Q 16.87 38.69 16.43 39.03
  Q 15.82 39.51 16.32 40.13
  Q 16.62 40.50 16.45 40.94
  C 15.68 42.90 16.07 45.90 18.91 45.02
  Q 19.05 46.12 20.10 46.76
  Q 20.57 47.05 20.72 46.51
  Q 20.88 45.91 20.25 45.35
  Q 23.74 43.93 24.62 46.38
  Q 25.00 47.42 24.34 49.47
  Q 22.23 49.67 22.15 52.03
  A 0.82 0.69 -59.0 0 1 20.74 52.51
  Q 20.67 52.34 20.50 52.32
  Q 20.13 52.29 20.12 52.65
  L 20.11 53.00
  A 0.65 0.65 0.0 0 1 19.48 53.63
  Q 18.22 53.67 17.10 53.05
  A 0.56 0.56 0.0 0 1 17.32 52.00
  L 18.52 51.87
  Q 19.02 51.82 19.31 51.42
  Q 19.46 51.22 19.53 50.95
  Q 19.64 50.51 19.18 50.46
  L 18.19 50.35
  Q 18.79 50.29 19.01 50.01
  Q 19.44 49.44 18.73 49.44
  Q 17.00 49.46 16.86 47.84
  Q 16.81 47.26 16.29 46.99
  L 15.93 46.81
  Q 15.34 46.51 15.16 47.15
  Q 14.96 47.82 15.08 48.60
  Q 12.20 48.57 11.79 45.99
  Q 11.70 45.39 11.18 45.71
  L 10.79 45.96
  Q 11.07 44.41 12.69 45.03
  Q 13.24 45.24 13.70 44.87
  L 14.49 44.22
  Q 15.12 43.71 14.44 43.27
  Q 13.65 42.76 13.99 41.78
  Q 14.12 41.37 14.09 40.94
  L 13.96 39.27
  Q 13.91 38.70 14.48 38.67
  Q 14.64 38.66 14.81 38.64
  Q 15.18 38.59 15.06 38.23
  L 14.73 37.25
  Q 14.57 36.75 15.27 36.88
  Q 15.42 36.91 15.50 36.77
  Q 15.72 36.37 15.27 36.37
  L 14.78 36.37
  A 0.53 0.52 11.2 0 1 14.29 35.65
  Q 14.95 34.09 14.52 32.71
  Q 15.13 31.70 16.30 32.42
  Q 16.72 32.68 16.66 33.17
  L 16.44 34.91
  Z
  M 19.54 49.47
  Q 19.45 49.76 19.72 49.90
  Q 20.50 50.31 20.86 49.49
  Q 21.27 48.52 20.76 48.01
  Q 20.16 47.40 19.91 48.22
  L 19.54 49.47
  Z"
/>
<path fill="#9e825a" d="
  M 19.19 40.23
  Q 19.90 40.29 20.21 40.02
  A 0.46 0.45 -47.8 0 0 20.18 39.31
  Q 19.75 39.00 19.23 38.92
  A 0.50 0.49 -73.3 0 1 18.86 38.22
  Q 18.99 37.93 19.27 37.77
  A 0.40 0.40 0.0 0 0 19.29 37.10
  Q 19.13 36.99 18.89 36.91
  L 19.16 35.75
  Q 19.26 35.34 19.66 35.28
  Q 20.65 35.11 20.64 36.00
  Q 20.61 38.09 20.62 40.23
  Q 20.62 40.81 21.19 40.88
  Q 21.83 40.96 22.03 40.37
  A 0.28 0.28 0.0 0 1 22.57 40.46
  Q 22.57 40.77 22.38 40.98
  Q 21.94 41.43 22.17 42.02
  L 22.68 43.30
  Q 22.93 43.95 22.28 43.71
  Q 21.20 43.31 20.14 42.90
  Q 19.25 42.55 19.52 41.45
  A 1.06 1.04 39.9 0 0 19.45 40.75
  L 19.19 40.23
  Z"
/>
<path fill="#6b2738" d="
  M 95.90 38.97
  L 95.90 39.33
  A 0.74 0.73 -83.6 0 0 96.47 40.05
  Q 100.39 40.98 101.47 41.56
  C 104.49 43.19 103.64 47.68 100.40 48.48
  Q 95.98 49.56 92.19 47.08
  A 0.29 0.29 0.0 0 1 92.13 46.65
  L 93.65 44.88
  Q 93.89 44.60 94.18 44.83
  Q 96.45 46.55 99.26 45.98
  A 0.91 0.91 0.0 0 0 99.83 44.59
  C 98.56 42.68 94.67 43.80 92.95 41.14
  Q 91.69 39.17 93.11 37.36
  C 95.26 34.62 99.63 34.72 102.25 36.43
  Q 102.89 36.85 102.51 37.51
  L 102.00 38.42
  Q 101.54 39.23 100.70 38.83
  Q 98.94 38.01 97.02 37.91
  Q 95.89 37.84 95.90 38.97
  Z"
/>
<path fill="#6b2738" d="
  M 113.98 46.22
  L 108.85 46.22
  A 0.35 0.35 0.0 0 0 108.51 46.49
  L 108.08 48.29
  A 0.35 0.35 0.0 0 1 107.75 48.56
  L 104.80 48.66
  A 0.35 0.35 0.0 0 1 104.46 48.18
  L 109.76 35.61
  A 0.35 0.35 0.0 0 1 110.07 35.39
  L 112.86 35.29
  A 0.35 0.35 0.0 0 1 113.19 35.50
  L 118.59 48.14
  A 0.35 0.35 0.0 0 1 118.26 48.63
  L 115.19 48.55
  A 0.35 0.35 0.0 0 1 114.87 48.30
  L 114.32 46.47
  A 0.35 0.35 0.0 0 0 113.98 46.22
  Z
  M 109.99 42.95
  A 0.54 0.54 0.0 0 0 110.48 43.69
  L 112.38 43.71
  A 0.54 0.54 0.0 0 0 112.89 42.99
  L 111.98 40.44
  A 0.54 0.54 0.0 0 0 110.97 40.43
  L 109.99 42.95
  Z"
/>
<path fill="#b6a86a" d="
  M 38.88 35.48
  Q 39.08 35.37 39.28 35.26
  C 40.11 37.22 39.38 39.24 39.98 40.63
  Q 40.35 41.49 41.27 41.36
  Q 41.75 41.30 41.78 41.77
  Q 41.85 42.87 41.01 43.45
  Q 40.69 43.66 40.22 43.24
  Q 39.47 40.58 37.41 40.97
  Q 36.55 38.18 38.88 35.48
  Z"
/>
<path fill="#6b2738" d="
  M 60.07 35.95
  A 0.46 0.46 0.0 0 1 60.53 35.49
  L 65.51 35.51
  A 7.00 6.09 0.2 0 1 72.49 41.62
  L 72.49 42.50
  A 7.00 6.09 0.2 0 1 65.47 48.57
  L 60.49 48.55
  A 0.46 0.46 0.0 0 1 60.03 48.09
  L 60.07 35.95
  Z
  M 63.46 39.04
  L 63.50 45.14
  A 0.56 0.56 0.0 0 0 64.06 45.70
  L 65.66 45.69
  A 3.48 3.40 -0.3 0 0 69.12 42.28
  L 69.12 41.86
  A 3.48 3.40 -0.3 0 0 65.62 38.47
  L 64.02 38.48
  A 0.56 0.56 0.0 0 0 63.46 39.04
  Z"
/>
<path fill="#6b2738" d="
  M 78.08 43.65
  L 78.06 45.44
  A 0.43 0.43 0.0 0 0 78.49 45.88
  L 85.01 45.80
  A 0.43 0.43 0.0 0 1 85.45 46.23
  L 85.47 48.19
  A 0.43 0.43 0.0 0 1 85.04 48.63
  L 75.20 48.54
  A 0.43 0.43 0.0 0 1 74.77 48.11
  L 74.78 35.90
  A 0.43 0.43 0.0 0 1 75.21 35.47
  L 84.85 35.45
  A 0.43 0.43 0.0 0 1 85.28 35.88
  L 85.28 37.85
  A 0.43 0.43 0.0 0 1 84.85 38.28
  L 78.62 38.27
  A 0.43 0.43 0.0 0 0 78.19 38.65
  L 77.99 40.24
  A 0.43 0.43 0.0 0 0 78.42 40.72
  L 84.12 40.73
  A 0.43 0.43 0.0 0 1 84.55 41.16
  L 84.53 42.83
  A 0.43 0.43 0.0 0 1 84.10 43.26
  L 78.52 43.22
  A 0.43 0.43 0.0 0 0 78.08 43.65
  Z"
/>
<path fill="#6b2738" d="
  M 124.34 45.74
  L 130.05 45.81
  A 0.39 0.39 0.0 0 1 130.44 46.19
  L 130.48 48.22
  A 0.39 0.39 0.0 0 1 130.09 48.62
  L 120.90 48.58
  A 0.39 0.39 0.0 0 1 120.51 48.19
  L 120.54 35.84
  A 0.39 0.39 0.0 0 1 120.93 35.45
  L 123.60 35.48
  A 0.39 0.39 0.0 0 1 123.99 35.87
  L 123.95 45.35
  A 0.39 0.39 0.0 0 0 124.34 45.74
  Z"
/>
<path fill="#6b2738" d="
  M 135.43 43.93
  A 2.05 2.05 0.0 0 0 137.42 45.94
  L 138.08 45.96
  Q 140.69 46.04 140.68 43.42
  L 140.65 35.83
  A 0.39 0.38 -0.7 0 1 141.04 35.44
  L 143.70 35.47
  Q 144.07 35.48 144.06 35.84
  C 144.02 41.44 145.86 49.74 136.73 48.70
  C 130.21 47.96 131.82 40.54 131.83 36.11
  Q 131.84 35.47 132.48 35.47
  L 134.75 35.48
  A 0.53 0.53 0.0 0 1 135.28 36.00
  L 135.43 43.93
  Z"
/>
<path fill="#6b2738" d="
  M 146.62 35.83
  A 0.34 0.34 0.0 0 1 146.96 35.49
  L 152.07 35.49
  A 6.97 6.27 0.0 0 1 159.04 41.76
  L 159.04 42.30
  A 6.97 6.27 0.0 0 1 152.07 48.57
  L 146.96 48.57
  A 0.34 0.34 0.0 0 1 146.62 48.23
  L 146.62 35.83
  Z
  M 149.89 39.02
  L 149.83 45.16
  A 0.56 0.56 0.0 0 0 150.39 45.72
  L 152.17 45.74
  A 3.34 3.19 0.5 0 0 155.54 42.57
  L 155.54 41.69
  A 3.34 3.19 0.5 0 0 152.23 38.48
  L 150.45 38.46
  A 0.56 0.56 0.0 0 0 149.89 39.02
  Z"
/>
<path fill="#b6a86a" d="
  M 18.89 36.91
  Q 19.13 36.99 19.29 37.10
  A 0.40 0.40 0.0 0 1 19.27 37.77
  Q 18.99 37.93 18.86 38.22
  A 0.50 0.49 -73.3 0 0 19.23 38.92
  Q 19.75 39.00 20.18 39.31
  A 0.46 0.45 -47.8 0 1 20.21 40.02
  Q 19.90 40.29 19.19 40.23
  Q 17.12 39.20 18.89 36.91
  Z"
/>
<path fill="#806c4a" d="
  M 37.41 40.97
  Q 39.47 40.58 40.22 43.24
  Q 39.78 43.61 39.41 43.10
  Q 38.48 41.83 37.41 40.97
  Z"
/>
<path fill="#cabd83" fill-opacity="0.996" d="
  M 18.91 45.02
  Q 19.76 44.63 20.25 45.35
  Q 20.88 45.91 20.72 46.51
  Q 20.57 47.05 20.10 46.76
  Q 19.05 46.12 18.91 45.02
  Z"
/>
<path fill="#cabd83" fill-opacity="0.996" d="
  M 43.02 45.69
  Q 41.90 46.29 41.51 47.40
  Q 41.35 47.87 40.85 47.97
  Q 39.99 48.14 39.17 47.81
  Q 38.62 47.59 38.05 47.67
  L 35.48 48.02
  A 0.53 0.53 0.0 0 1 34.94 47.25
  Q 35.23 46.70 36.20 46.28
  Q 37.12 45.28 38.51 45.31
  Q 40.96 45.36 43.02 45.69
  Z"
/>
<path fill="#cabd83" fill-opacity="0.996" d="
  M 18.19 50.35
  Q 16.31 49.92 15.08 48.60
  Q 14.96 47.82 15.16 47.15
  Q 15.34 46.51 15.93 46.81
  L 16.29 46.99
  Q 16.81 47.26 16.86 47.84
  Q 17.00 49.46 18.73 49.44
  Q 19.44 49.44 19.01 50.01
  Q 18.79 50.29 18.19 50.35
  Z"
/>
<path fill="#cabd83" fill-opacity="0.996" d="
  M 19.54 49.47
  L 19.91 48.22
  Q 20.16 47.40 20.76 48.01
  Q 21.27 48.52 20.86 49.49
  Q 20.50 50.31 19.72 49.90
  Q 19.45 49.76 19.54 49.47
  Z"
/>
<ellipse fill="#b6a86a" cx="0.00" cy="0.00" transform="translate(12.52,50.76) rotate(90.1)" rx="1.38" ry="0.42"/>
<path fill="#b6a86a" d="
  M 4.02 50.70
  Q 4.13 50.09 4.65 50.44
  Q 4.99 50.68 5.02 51.15
  Q 5.05 51.55 4.78 51.77
  Q 4.59 51.93 4.34 51.96
  Q 3.77 52.01 3.88 51.45
  L 4.02 50.70
  Z"
/>
<path fill="#cabd83" fill-opacity="0.996" d="
  M 38.76 51.36
  A 0.61 0.61 0.0 0 1 39.30 50.64
  Q 40.50 50.52 41.49 51.10
  Q 42.00 51.41 41.78 51.97
  Q 41.20 53.43 39.60 53.08
  Q 39.04 52.96 38.94 52.40
  L 38.76 51.36
  Z"
/>
<path fill="#cabd83" fill-opacity="0.996" d="
  M 170.00 53.74
  Q 170.00 54.09 170.00 54.44
  L 60.06 54.47
  A 0.12 0.12 0.0 0 1 59.94 54.35
  L 59.94 54.10
  A 0.37 0.36 -90.0 0 1 60.30 53.73
  L 170.00 53.74
  Z"
/>
<ellipse fill="#cabd83" fill-opacity="0.996" cx="0.00" cy="0.00" transform="translate(36.38,55.55) rotate(88.1)" rx="1.27" ry="0.43"/>
<path fill="#1e89b3" d="
  M 26.68 56.45
  L 32.96 56.95
  Q 34.75 57.32 34.88 58.75
  Q 34.99 59.99 33.76 60.19
  L 25.37 60.00
  L 24.91 57.05
  Q 24.84 56.60 25.30 56.62
  Q 26.17 56.68 26.68 56.45
  Z"
/>
<path fill="#cabd83" fill-opacity="0.996" d="
  M 39.56 59.15
  Q 42.52 58.72 43.86 61.23
  Q 44.14 61.75 43.56 61.62
  C 41.72 61.22 38.70 61.07 37.53 59.55
  Q 37.11 59.00 37.79 58.90
  Q 38.29 58.82 38.80 59.05
  Q 39.17 59.21 39.56 59.15
  Z"
/>
<path fill="#b0dfe8" d="
  M 25.37 60.00
  L 33.76 60.19
  Q 35.17 63.83 30.93 67.36
  Q 28.78 66.42 28.07 65.12
  L 25.37 60.00
  Z"
/>
<path fill="#b6a86a" d="
  M 70.56 60.32
  A 1.11 1.11 0.0 0 0 68.75 60.66
  Q 67.81 62.90 68.64 65.19
  Q 68.71 65.39 68.52 65.47
  L 68.29 65.58
  Q 68.15 65.64 68.06 65.52
  Q 65.90 62.34 68.90 60.20
  A 2.37 2.37 0.0 0 1 72.52 61.37
  Q 73.32 63.74 71.64 65.55
  Q 71.56 65.63 71.46 65.58
  L 71.22 65.44
  Q 70.97 65.31 71.11 65.06
  Q 72.65 62.47 70.56 60.32
  Z"
/>
<rect fill="#b6a86a" x="-0.62" y="-2.80" transform="translate(75.35,62.94) rotate(-0.8)" width="1.24" height="5.60" rx="0.50"/>
<rect fill="#b6a86a" x="-0.71" y="-2.74" transform="translate(85.35,62.89) rotate(-0.5)" width="1.42" height="5.48" rx="0.30"/>
<path fill="#b6a86a" d="
  M 92.25 63.89
  Q 91.67 64.16 91.91 64.87
  A 0.63 0.62 62.7 0 1 91.69 65.58
  Q 91.42 65.78 91.12 65.78
  A 0.45 0.45 0.0 0 1 90.68 65.34
  L 90.57 60.41
  A 0.27 0.26 -2.2 0 1 90.83 60.14
  L 91.49 60.13
  Q 91.84 60.13 91.85 60.48
  L 91.88 62.94
  Q 91.88 63.27 92.20 63.34
  L 92.93 63.48
  Q 93.12 63.52 93.13 63.32
  L 93.24 60.68
  Q 93.26 60.21 93.70 60.40
  Q 94.05 60.55 94.35 60.81
  A 0.73 0.72 36.1 0 1 94.50 61.72
  Q 93.48 63.47 94.52 65.22
  Q 94.69 65.50 94.49 65.76
  Q 94.39 65.89 94.24 65.90
  Q 94.12 65.91 94.00 65.80
  Q 93.20 65.13 92.83 64.13
  Q 92.67 63.70 92.25 63.89
  Z"
/>
<path fill="#b6a86a" d="
  M 105.31 60.71
  Q 103.96 62.79 105.15 65.16
  Q 105.25 65.36 105.06 65.47
  L 104.84 65.60
  Q 104.75 65.65 104.67 65.58
  Q 102.02 62.88 104.53 60.61
  A 2.60 2.59 49.6 0 1 108.29 60.92
  Q 110.13 63.21 108.39 64.79
  Q 107.37 65.71 107.77 64.40
  Q 108.29 62.69 107.66 60.98
  A 1.32 1.32 0.0 0 0 105.31 60.71
  Z"
/>
<rect fill="#b6a86a" x="-0.67" y="-2.72" transform="translate(114.40,62.87) rotate(-0.7)" width="1.34" height="5.44" rx="0.32"/>
<path fill="#b6a86a" d="
  M 122.15 60.36
  L 122.21 65.22
  Q 122.21 65.64 121.80 65.73
  Q 121.57 65.78 121.32 65.76
  Q 120.69 65.72 120.79 65.10
  Q 121.16 62.82 120.74 60.56
  Q 120.68 60.23 121.01 60.20
  L 121.85 60.10
  Q 122.15 60.06 122.15 60.36
  Z"
/>
<path fill="#b6a86a" d="
  M 130.43 61.18
  Q 130.12 63.28 130.63 65.35
  A 0.24 0.24 0.0 0 1 130.25 65.59
  L 129.43 64.92
  Q 128.96 64.55 128.92 63.95
  Q 128.57 59.65 132.73 60.07
  Q 133.83 60.18 133.75 61.14
  A 0.24 0.24 0.0 0 1 133.29 61.22
  Q 132.62 59.74 131.07 60.37
  Q 130.52 60.59 130.43 61.18
  Z"
/>
<rect fill="#b6a86a" x="-0.62" y="-2.77" transform="translate(140.46,62.95) rotate(0.3)" width="1.24" height="5.54" rx="0.29"/>
<rect fill="#b6a86a" x="-0.61" y="-2.79" transform="translate(144.29,62.91) rotate(0.2)" width="1.22" height="5.58" rx="0.27"/>
<path fill="#b6a86a" d="
  M 168.80 60.37
  Q 168.75 60.19 168.89 60.08
  Q 169.11 59.89 169.45 60.14
  Q 169.70 60.32 169.77 60.57
  Q 169.89 60.98 169.69 61.30
  Q 169.26 62.03 169.03 61.21
  L 168.80 60.37
  Z"
/>
<path fill="#b6a86a" d="
  M 61.61 60.85
  Q 60.58 62.92 61.56 64.98
  Q 61.96 65.82 61.17 65.33
  Q 58.82 63.89 60.54 61.03
  Q 60.86 60.49 61.32 60.43
  Q 61.85 60.37 61.61 60.85
  Z"
/>
<path fill="#b6a86a" d="
  M 77.41 60.91
  Q 77.23 60.75 77.29 60.52
  Q 77.32 60.41 77.43 60.38
  Q 77.99 60.27 78.36 60.75
  Q 78.67 61.16 78.51 61.64
  Q 78.14 62.77 78.72 63.85
  A 0.99 0.92 34.2 0 1 78.83 64.33
  Q 78.79 65.39 78.00 65.49
  Q 77.25 65.60 77.63 64.94
  Q 77.76 64.71 77.78 64.45
  Q 77.81 63.93 77.55 63.47
  Q 76.94 62.43 77.49 61.33
  A 0.35 0.35 0.0 0 0 77.41 60.91
  Z"
/>
<rect fill="#b6a86a" x="-0.60" y="-2.72" transform="translate(81.52,62.96) rotate(0.2)" width="1.20" height="5.44" rx="0.26"/>
<path fill="#b6a86a" d="
  M 97.63 61.49
  Q 97.52 61.62 97.41 61.76
  A 0.06 0.06 0.0 0 1 97.32 61.76
  Q 96.97 61.38 96.97 60.83
  Q 96.96 60.24 97.55 60.14
  Q 97.75 60.10 97.97 60.16
  Q 98.24 60.22 98.48 60.52
  Q 99.49 61.82 100.53 63.11
  A 0.57 0.54 69.6 0 0 100.96 63.32
  Q 101.62 63.33 101.42 64.48
  A 0.64 0.64 0.0 0 1 100.26 64.73
  L 98.04 61.51
  A 0.25 0.25 0.0 0 0 97.63 61.49
  Z"
/>
<path fill="#b6a86a" d="
  M 117.48 64.68
  Q 118.70 62.11 116.79 60.77
  Q 116.27 60.41 116.90 60.43
  C 120.00 60.55 119.81 65.16 117.31 65.27
  A 0.19 0.19 0.0 0 1 117.18 64.93
  L 117.46 64.70
  Q 117.47 64.69 117.48 64.68
  Z"
/>
<rect fill="#b6a86a" x="-0.81" y="-2.71" transform="translate(136.72,62.96) rotate(-0.8)" width="1.62" height="5.42" rx="0.30"/>
<path fill="#b6a86a" d="
  M 149.31 63.31
  Q 148.22 63.92 148.27 65.18
  A 0.41 0.40 -87.6 0 1 147.82 65.60
  Q 147.67 65.58 147.52 65.56
  Q 147.29 65.53 147.39 65.32
  L 149.48 60.70
  Q 149.80 60.01 150.10 60.70
  L 152.09 65.22
  Q 152.32 65.74 151.74 65.74
  L 151.02 65.75
  A 0.75 0.75 0.0 0 1 150.27 64.99
  Q 150.28 64.21 149.95 63.51
  Q 149.74 63.06 149.31 63.31
  Z"
/>
<rect fill="#cabd83" fill-opacity="0.996" x="-0.65" y="-2.66" transform="translate(155.37,62.98) rotate(0.2)" width="1.30" height="5.32" rx="0.37"/>
<path fill="#b6a86a" d="
  M 170.00 63.29
  L 170.00 64.96
  Q 169.79 65.24 169.59 65.38
  A 0.44 0.44 0.0 0 1 168.90 65.02
  Q 168.89 63.29 167.12 62.88
  A 0.81 0.80 -87.9 0 1 166.50 62.21
  Q 166.35 61.21 166.97 60.50
  Q 167.36 60.04 167.41 60.64
  Q 167.58 62.46 170.00 63.29
  Z"
/>
<path fill="#b6a86a" d="
  M 157.28 60.66
  A 0.16 0.16 0.0 0 1 157.47 60.46
  Q 158.81 60.74 158.30 62.02
  Q 158.05 62.65 157.50 62.90
  Q 156.97 63.14 157.17 62.59
  Q 157.52 61.64 157.28 60.66
  Z"
/>
<path fill="#b6a86a" d="
  M 162.08 62.05
  Q 162.08 61.99 162.02 62.00
  L 161.68 62.03
  A 0.22 0.21 83.6 0 0 161.49 62.28
  Q 161.64 63.38 160.86 64.13
  Q 160.49 64.50 160.56 63.98
  Q 160.78 62.25 161.69 60.76
  A 0.38 0.38 0.0 0 1 162.36 60.81
  L 164.26 65.32
  Q 164.46 65.79 163.95 65.77
  L 163.47 65.76
  A 0.79 0.78 80.2 0 1 162.77 65.26
  Q 162.15 63.71 162.08 62.05
  Z"
/>
<path fill="#9e825a" d="
  M 14.80 65.33
  L 12.79 62.45
  A 0.46 0.45 -37.0 0 1 12.88 61.83
  Q 13.04 61.71 13.27 61.69
  Q 13.52 61.68 13.74 61.86
  Q 15.21 63.08 15.35 65.13
  A 0.30 0.30 0.0 0 1 14.80 65.33
  Z"
/>
<path fill="#b6a86a" d="
  M 64.14 64.99
  L 63.84 63.95
  A 0.48 0.48 0.0 0 1 64.18 63.36
  Q 64.34 63.32 64.52 63.29
  Q 64.87 63.24 64.98 63.58
  Q 65.51 65.25 64.43 65.22
  Q 64.20 65.21 64.14 64.99
  Z"
/>
<path fill="#9e825a" d="
  M 13.70 72.86
  C 9.86 70.47 7.18 68.43 5.10 64.29
  Q 4.99 64.08 5.21 63.97
  L 5.21 63.96
  Q 5.43 63.86 5.54 64.07
  Q 7.94 68.62 11.92 70.81
  Q 13.38 71.62 14.00 72.31
  Q 14.16 72.50 14.03 72.71
  Q 13.95 72.84 13.80 72.87
  Q 13.75 72.89 13.70 72.86
  Z"
/>
<path fill="#47d1f3" d="
  M 28.07 65.12
  Q 28.78 66.42 30.93 67.36
  L 29.10 70.20
  Q 28.75 70.74 29.37 70.93
  Q 30.56 71.30 31.68 71.64
  C 33.23 72.12 34.56 71.58 36.03 71.91
  Q 37.34 72.21 36.17 72.88
  Q 29.27 76.88 21.26 75.75
  A 0.69 0.69 0.0 0 1 20.66 75.13
  Q 20.40 72.16 19.15 69.50
  A 0.73 0.73 0.0 0 1 19.54 68.51
  L 28.07 65.12
  Z"
/>
</svg>
